<svg xmlns="http://www.w3.org/2000/svg" width="150" height="74.427" viewBox="0 0 323.923 160.722">
  <g id="Grupo_23" data-name="Grupo 23" transform="translate(-395.459 -1636.6)">
    <path id="Caminho_56" data-name="Caminho 56" d="M612.041,1721.9l62.807-42.649v8.726l-62.807,42.649Z" fill="#fcfcfc"/>
    <path id="Caminho_57" data-name="Caminho 57" d="M674.849,1679.25,612.041,1636.6v8.726l62.807,42.649Z" fill="#fcfcfc"/>
    <path id="Caminho_58" data-name="Caminho 58" d="M674.849,1687.976v-8.72l-6.421,4.36Z" fill="#fcfcfc"/>
    <path id="Caminho_59" data-name="Caminho 59" d="M719.382,1688.081l-62.807,42.649V1722l62.807-42.649Z" fill="#fcfcfc"/>
    <path id="Caminho_60" data-name="Caminho 60" d="M656.575,1730.736l62.807,42.649v-8.726l-62.807-42.649Z" fill="#fcfcfc"/>
    <path id="Caminho_61" data-name="Caminho 61" d="M656.575,1722.01v8.72l6.421-4.36Z" fill="#fcfcfc"/>
    <g id="Grupo_20" data-name="Grupo 20">
      <path id="Caminho_62" data-name="Caminho 62" d="M444.792,1783.278a11.735,11.735,0,0,1-4.277,4.541,11.861,11.861,0,0,1-12.127,0,11.855,11.855,0,0,1-4.3-4.566,14.036,14.036,0,0,1,0-12.9,11.926,11.926,0,0,1,4.276-4.566,11.907,11.907,0,0,1,12.152,0,11.7,11.7,0,0,1,4.277,4.566,13.553,13.553,0,0,1,1.546,6.475A13.41,13.41,0,0,1,444.792,1783.278Zm-1.667-12.008a9.872,9.872,0,0,0-3.552-3.889,9.873,9.873,0,0,0-10.219,0,9.988,9.988,0,0,0-3.6,3.889,12.388,12.388,0,0,0,0,11.065,9.982,9.982,0,0,0,3.6,3.89,9.944,9.944,0,0,0,10.219.024,9.65,9.65,0,0,0,3.552-3.89,12.648,12.648,0,0,0,0-11.089Z" fill="#fcfcfc"/>
      <path id="Caminho_63" data-name="Caminho 63" d="M397.392,1797.322v-13.585a11.3,11.3,0,0,0,3.962,4.107,10.142,10.142,0,0,0,5.315,1.449,10.447,10.447,0,0,0,5.7-1.619,11.343,11.343,0,0,0,4.034-4.445,13.423,13.423,0,0,0,1.474-6.305,13.58,13.58,0,0,0-1.449-6.33,11.042,11.042,0,0,0-4.011-4.4,10.658,10.658,0,0,0-5.75-1.594,11.045,11.045,0,0,0-5.411,1.328,9.609,9.609,0,0,0-3.866,4.083v-5.424h-1.933v32.732Zm.991-25.834a8.909,8.909,0,0,1,3.334-3.721,9.052,9.052,0,0,1,4.856-1.329,8.731,8.731,0,0,1,4.783,1.353,9.485,9.485,0,0,1,3.358,3.745,11.587,11.587,0,0,1,1.232,5.388,11.726,11.726,0,0,1-1.232,5.411,9.427,9.427,0,0,1-3.358,3.769,8.723,8.723,0,0,1-4.783,1.353,8.923,8.923,0,0,1-4.856-1.353,9.06,9.06,0,0,1-3.334-3.745,13.069,13.069,0,0,1,0-10.871Z" fill="#fcfcfc"/>
      <path id="Caminho_64" data-name="Caminho 64" d="M473.485,1766.535v17.3a6.016,6.016,0,0,0,.894,3.7,3.221,3.221,0,0,0,1.715,1.3,10.257,10.257,0,0,0,2.03.169,3.444,3.444,0,0,0,.437-.03v-1.789a2.11,2.11,0,0,1-.486.08,2.682,2.682,0,0,1-1.908-.7,3.905,3.905,0,0,1-.749-2.826v-17.2h5.1V1764.7h-5.1v-5.974h-1.933v5.974" fill="#fcfcfc"/>
      <path id="Caminho_65" data-name="Caminho 65" d="M505.81,1789a.873.873,0,0,0,.009.1h1.913a.872.872,0,0,0,.01-.1v-24.454H505.81v5.616a9.319,9.319,0,0,0-3.624-4.4,10.107,10.107,0,0,0-5.653-1.643,10.451,10.451,0,0,0-5.7,1.619,11.267,11.267,0,0,0-4.034,4.494,13.912,13.912,0,0,0-1.474,6.45,14.537,14.537,0,0,0,1.449,6.547,11.362,11.362,0,0,0,4.011,4.59,10.31,10.31,0,0,0,5.75,1.667,9.838,9.838,0,0,0,5.556-1.667,10.467,10.467,0,0,0,3.721-4.131Zm-1.015-6.71a9.6,9.6,0,0,1-3.358,3.938,8.864,8.864,0,0,1-9.64,0,9.656,9.656,0,0,1-3.334-3.938,12.768,12.768,0,0,1-1.207-5.6,12.308,12.308,0,0,1,1.207-5.532,9.338,9.338,0,0,1,3.359-3.818,8.728,8.728,0,0,1,4.807-1.376,8.516,8.516,0,0,1,4.808,1.425,9.667,9.667,0,0,1,3.358,3.889,12.133,12.133,0,0,1,1.208,5.412A12.769,12.769,0,0,1,504.8,1782.287Z" fill="#fcfcfc"/>
      <path id="Caminho_66" data-name="Caminho 66" d="M518.116,1789.045a.9.9,0,0,0,.01-.1v-34.727a.984.984,0,0,0-.053-.314h-1.822a.912.912,0,0,0-.058.314v34.727c0,.036.006.069.009.1Z" fill="#fcfcfc"/>
      <path id="Caminho_67" data-name="Caminho 67" d="M464.412,1764.172a6.134,6.134,0,0,0-.825-.053,8.649,8.649,0,0,0-5.533,1.981,11.418,11.418,0,0,0-3.454,4.881V1766.1h-1.933v22.853c0,.035.006.069.009.1h1.914c0-.034.01-.068.01-.1v-13a9.907,9.907,0,0,1,1.256-4.614,12.225,12.225,0,0,1,3.237-3.962,6.373,6.373,0,0,1,3.962-1.57,3.227,3.227,0,0,1,1.184.217c.063.025.117.045.173.065Z" fill="#fcfcfc"/>
    </g>
    <g id="Grupo_22" data-name="Grupo 22">
      <g id="Grupo_21" data-name="Grupo 21">
        <path id="Caminho_68" data-name="Caminho 68" d="M580,1783.278a11.734,11.734,0,0,1-4.277,4.541,11.861,11.861,0,0,1-12.127,0,11.848,11.848,0,0,1-4.3-4.566,14.036,14.036,0,0,1,0-12.9,11.927,11.927,0,0,1,4.276-4.566,11.907,11.907,0,0,1,12.152,0,11.7,11.7,0,0,1,4.277,4.566,13.552,13.552,0,0,1,1.546,6.475A13.409,13.409,0,0,1,580,1783.278Zm-1.667-12.008a9.871,9.871,0,0,0-3.552-3.889,9.873,9.873,0,0,0-10.219,0,9.988,9.988,0,0,0-3.6,3.889,12.388,12.388,0,0,0,0,11.065,9.982,9.982,0,0,0,3.6,3.89,9.944,9.944,0,0,0,10.219.024,9.65,9.65,0,0,0,3.552-3.89,12.648,12.648,0,0,0,0-11.089Z" fill="#fcfcfc"/>
        <path id="Caminho_69" data-name="Caminho 69" d="M532.6,1797.322v-13.585a11.3,11.3,0,0,0,3.962,4.107,10.142,10.142,0,0,0,5.315,1.449,10.447,10.447,0,0,0,5.7-1.619,11.344,11.344,0,0,0,4.034-4.445,13.423,13.423,0,0,0,1.474-6.305,13.58,13.58,0,0,0-1.449-6.33,11.042,11.042,0,0,0-4.011-4.4,10.658,10.658,0,0,0-5.75-1.594,11.045,11.045,0,0,0-5.411,1.328,9.609,9.609,0,0,0-3.866,4.083v-5.377h-1.933v32.685Zm.991-25.834a8.91,8.91,0,0,1,3.334-3.721,9.052,9.052,0,0,1,4.856-1.329,8.731,8.731,0,0,1,4.783,1.353,9.485,9.485,0,0,1,3.358,3.745,11.587,11.587,0,0,1,1.232,5.388,11.726,11.726,0,0,1-1.232,5.411,9.427,9.427,0,0,1-3.358,3.769,8.723,8.723,0,0,1-4.783,1.353,8.923,8.923,0,0,1-4.856-1.353,9.06,9.06,0,0,1-3.334-3.745,13.069,13.069,0,0,1,0-10.871Z" fill="#fcfcfc"/>
        <path id="Caminho_70" data-name="Caminho 70" d="M644.405,1788.941a.887.887,0,0,0,.009.1h1.913a.9.9,0,0,0,.01-.1V1766.1h-1.932v4.055a9.319,9.319,0,0,0-3.624-4.4,10.107,10.107,0,0,0-5.653-1.643,10.451,10.451,0,0,0-5.7,1.619,11.267,11.267,0,0,0-4.034,4.494,13.912,13.912,0,0,0-1.474,6.45,14.537,14.537,0,0,0,1.449,6.547,11.362,11.362,0,0,0,4.011,4.59,10.31,10.31,0,0,0,5.75,1.667,9.838,9.838,0,0,0,5.556-1.667,10.467,10.467,0,0,0,3.721-4.131Zm-1.015-6.654a9.6,9.6,0,0,1-3.358,3.938,8.864,8.864,0,0,1-9.64,0,9.655,9.655,0,0,1-3.334-3.938,12.768,12.768,0,0,1-1.207-5.6,12.309,12.309,0,0,1,1.207-5.532,9.338,9.338,0,0,1,3.359-3.818,8.728,8.728,0,0,1,4.807-1.376,8.516,8.516,0,0,1,4.808,1.425,9.667,9.667,0,0,1,3.358,3.889,12.133,12.133,0,0,1,1.208,5.412A12.769,12.769,0,0,1,643.39,1782.287Z" fill="#fcfcfc"/>
        <path id="Caminho_71" data-name="Caminho 71" d="M656.522,1789.045c0-.035.01-.068.01-.1v-34.727a.984.984,0,0,0-.053-.314h-1.823a.91.91,0,0,0-.057.314v34.727c0,.036.006.069.009.1Z" fill="#fcfcfc"/>
        <path id="Caminho_72" data-name="Caminho 72" d="M600.46,1777.286a24.056,24.056,0,0,0-4.083-1.377,18.056,18.056,0,0,1-5.194-2.005,3.961,3.961,0,0,1-1.909-3.213,4.036,4.036,0,0,1,1.764-3.479,7.253,7.253,0,0,1,4.324-1.257,8.366,8.366,0,0,1,6.4,2.681l1.452-1.089a1.05,1.05,0,0,0-.173-.19,9.838,9.838,0,0,0-3.552-2.465,10.647,10.647,0,0,0-3.938-.773,8.931,8.931,0,0,0-5.846,1.86,5.832,5.832,0,0,0-2.271,4.712,5.3,5.3,0,0,0,2.247,4.566,17.872,17.872,0,0,0,6.16,2.584,15.113,15.113,0,0,1,4.639,1.837,3.724,3.724,0,0,1,1.691,3.333,3.955,3.955,0,0,1-1.933,3.455,7.942,7.942,0,0,1-4.493,1.281,9.007,9.007,0,0,1-7.805-3.98l-1.546,1.16c.037.069.076.138.122.211a11.118,11.118,0,0,0,9.035,4.348,9.9,9.9,0,0,0,6.113-1.763,5.7,5.7,0,0,0,2.343-4.808,5.934,5.934,0,0,0-.966-3.527A6.432,6.432,0,0,0,600.46,1777.286Z" fill="#fcfcfc"/>
        <path id="Caminho_73" data-name="Caminho 73" d="M614.013,1764.7v-5.974H612.08v25.108a6.016,6.016,0,0,0,.894,3.7,3.221,3.221,0,0,0,1.715,1.3,10.081,10.081,0,0,0,1.892.167v-1.741a2.651,2.651,0,0,1-1.819-.7,3.905,3.905,0,0,1-.749-2.826v-17.2h5.1V1764.7Z" fill="#fcfcfc"/>
      </g>
    </g>
  </g>
</svg>
