<svg xmlns="http://www.w3.org/2000/svg" width="317.919" height="76.234" viewBox="0 0 317.919 76.234">
  <g id="Grupo_27" data-name="Grupo 27" transform="translate(-393.026 -1993.605)">
    <g id="Grupo_24" data-name="Grupo 24">
      <path id="Caminho_74" data-name="Caminho 74" d="M426.036,2068.685l-32.01-18.481v-36.963l32.01-18.481,32.011,18.481V2050.2Z" fill="none" stroke="#fcfcfc" stroke-miterlimit="10" stroke-width="2"/>
    </g>
    <g id="Grupo_26" data-name="Grupo 26">
      <g id="Grupo_25" data-name="Grupo 25">
        <path id="Caminho_75" data-name="Caminho 75" d="M487.881,2013.55a22.048,22.048,0,0,1,4.415.434,10.715,10.715,0,0,1,3.725,1.48,7.855,7.855,0,0,1,2.577,2.756,9.345,9.345,0,0,1,.511,7.042,8.422,8.422,0,0,1-1.3,2.45,8.255,8.255,0,0,1-1.99,1.863,7.391,7.391,0,0,1-2.577,1.071v.1a8.59,8.59,0,0,1,5.613,2.883,8.854,8.854,0,0,1,2.093,6,14.37,14.37,0,0,1-.153,1.965,9.622,9.622,0,0,1-.612,2.245,9.474,9.474,0,0,1-1.328,2.271,7.842,7.842,0,0,1-2.321,1.965,13.963,13.963,0,0,1-3.572,1.378,20.958,20.958,0,0,1-5.079.536H472.47V2013.55Zm0,15.974a12.028,12.028,0,0,0,3.624-.485,7.526,7.526,0,0,0,2.552-1.327,5.458,5.458,0,0,0,1.53-1.965,5.723,5.723,0,0,0,.511-2.4q0-6.838-8.217-6.839H475.94v13.014Zm0,17.5a19.573,19.573,0,0,0,3.675-.331,8.433,8.433,0,0,0,3.062-1.2,6.138,6.138,0,0,0,2.093-2.322,7.785,7.785,0,0,0,.765-3.649,6.053,6.053,0,0,0-2.475-5.281q-2.477-1.761-7.12-1.761H475.94v14.544Z" fill="#fcfcfc"/>
        <path id="Caminho_76" data-name="Caminho 76" d="M505.641,2024.574a17.951,17.951,0,0,1,3.215-6.048,15.5,15.5,0,0,1,5.384-4.185,18.924,18.924,0,0,1,15.029,0,15.572,15.572,0,0,1,5.358,4.185,17.989,17.989,0,0,1,3.216,6.048,24.707,24.707,0,0,1,0,14.391,17.7,17.7,0,0,1-3.216,6.022,15.686,15.686,0,0,1-5.358,4.159,18.913,18.913,0,0,1-15.029,0,15.615,15.615,0,0,1-5.384-4.159,17.66,17.66,0,0,1-3.215-6.022,24.685,24.685,0,0,1,0-14.391Zm3.189,13.038a15.672,15.672,0,0,0,2.45,5.155,12.334,12.334,0,0,0,4.261,3.649,13.147,13.147,0,0,0,6.226,1.377,13,13,0,0,0,6.2-1.377,12.42,12.42,0,0,0,4.235-3.649,15.712,15.712,0,0,0,2.45-5.155,22.074,22.074,0,0,0,0-11.712,15.773,15.773,0,0,0-2.45-5.129,12.417,12.417,0,0,0-4.235-3.648,12.989,12.989,0,0,0-6.2-1.378,13.134,13.134,0,0,0-6.226,1.378,12.332,12.332,0,0,0-4.261,3.648,15.732,15.732,0,0,0-2.45,5.129,22.073,22.073,0,0,0,0,11.712Z" fill="#fcfcfc"/>
        <path id="Caminho_77" data-name="Caminho 77" d="M544.885,2013.55l10.308,15.26,10.666-15.26h3.879l-12.452,17.76,13.166,18.678h-4.185l-11.074-16.076-11.227,16.076h-3.878l13.064-18.78L540.8,2013.55Z" fill="#fcfcfc"/>
        <path id="Caminho_78" data-name="Caminho 78" d="M598.75,2020.823a10.292,10.292,0,0,0-2.551-2.782,11.451,11.451,0,0,0-3.318-1.709,12.268,12.268,0,0,0-3.8-.587,13.134,13.134,0,0,0-6.226,1.378,12.331,12.331,0,0,0-4.261,3.648,15.711,15.711,0,0,0-2.449,5.129,22.072,22.072,0,0,0,0,11.712,15.651,15.651,0,0,0,2.449,5.155,12.334,12.334,0,0,0,4.261,3.649,13.147,13.147,0,0,0,6.226,1.377,11.079,11.079,0,0,0,4.593-.918,10.885,10.885,0,0,0,3.522-2.5,12.82,12.82,0,0,0,2.4-3.7,15.42,15.42,0,0,0,1.174-4.567h3.47a19.677,19.677,0,0,1-1.582,6.073,14.928,14.928,0,0,1-3.164,4.593,13.447,13.447,0,0,1-4.568,2.909,16.022,16.022,0,0,1-5.843,1.021,17.2,17.2,0,0,1-7.527-1.557,15.614,15.614,0,0,1-5.384-4.159,17.676,17.676,0,0,1-3.215-6.022,24.684,24.684,0,0,1,0-14.391,17.968,17.968,0,0,1,3.215-6.048,15.5,15.5,0,0,1,5.384-4.185,18.248,18.248,0,0,1,12.6-.791,14.755,14.755,0,0,1,4.491,2.271,13.269,13.269,0,0,1,3.368,3.7,12.478,12.478,0,0,1,1.71,5.053h-3.471A11.631,11.631,0,0,0,598.75,2020.823Z" fill="#fcfcfc"/>
        <path id="Caminho_79" data-name="Caminho 79" d="M612.656,2013.55v22.557a17.691,17.691,0,0,0,.715,5.384,9,9,0,0,0,2.092,3.623,8.087,8.087,0,0,0,3.368,2.042,14.694,14.694,0,0,0,4.491.637,14.879,14.879,0,0,0,4.542-.637,8.094,8.094,0,0,0,3.368-2.042,9.009,9.009,0,0,0,2.092-3.623,17.689,17.689,0,0,0,.715-5.384V2013.55h3.47v23.322a17.759,17.759,0,0,1-.791,5.334,11.712,11.712,0,0,1-2.5,4.414,11.889,11.889,0,0,1-4.39,2.985,19.678,19.678,0,0,1-12.962,0,11.877,11.877,0,0,1-4.389-2.985,11.685,11.685,0,0,1-2.5-4.414,17.726,17.726,0,0,1-.791-5.334V2013.55Z" fill="#fcfcfc"/>
        <path id="Caminho_80" data-name="Caminho 80" d="M659.912,2013.55a22.038,22.038,0,0,1,4.414.434,10.708,10.708,0,0,1,3.725,1.48,7.858,7.858,0,0,1,2.578,2.756,9.336,9.336,0,0,1,.51,7.042,8.443,8.443,0,0,1-1.3,2.45,8.278,8.278,0,0,1-1.991,1.863,7.383,7.383,0,0,1-2.577,1.071v.1a8.592,8.592,0,0,1,5.614,2.883,8.854,8.854,0,0,1,2.092,6,14.37,14.37,0,0,1-.153,1.965,9.62,9.62,0,0,1-.612,2.245,9.468,9.468,0,0,1-1.327,2.271,7.859,7.859,0,0,1-2.322,1.965,13.963,13.963,0,0,1-3.572,1.378,20.95,20.95,0,0,1-5.078.536H644.5V2013.55Zm0,15.974a12.025,12.025,0,0,0,3.623-.485,7.526,7.526,0,0,0,2.552-1.327,5.46,5.46,0,0,0,1.531-1.965,5.722,5.722,0,0,0,.51-2.4q0-6.838-8.216-6.839H647.97v13.014Zm0,17.5a19.57,19.57,0,0,0,3.674-.331,8.438,8.438,0,0,0,3.063-1.2,6.136,6.136,0,0,0,2.092-2.322,7.786,7.786,0,0,0,.765-3.649,6.052,6.052,0,0,0-2.475-5.281q-2.477-1.761-7.119-1.761H647.97v14.544Z" fill="#fcfcfc"/>
        <path id="Caminho_81" data-name="Caminho 81" d="M677.672,2024.574a17.95,17.95,0,0,1,3.215-6.048,15.5,15.5,0,0,1,5.384-4.185,18.924,18.924,0,0,1,15.029,0,15.572,15.572,0,0,1,5.358,4.185,17.99,17.99,0,0,1,3.216,6.048,24.707,24.707,0,0,1,0,14.391,17.7,17.7,0,0,1-3.216,6.022,15.686,15.686,0,0,1-5.358,4.159,18.913,18.913,0,0,1-15.029,0,15.614,15.614,0,0,1-5.384-4.159,17.658,17.658,0,0,1-3.215-6.022,24.684,24.684,0,0,1,0-14.391Zm3.189,13.038a15.672,15.672,0,0,0,2.45,5.155,12.334,12.334,0,0,0,4.261,3.649,13.147,13.147,0,0,0,6.226,1.377,13,13,0,0,0,6.2-1.377,12.42,12.42,0,0,0,4.235-3.649,15.712,15.712,0,0,0,2.45-5.155,22.074,22.074,0,0,0,0-11.712,15.773,15.773,0,0,0-2.45-5.129,12.417,12.417,0,0,0-4.235-3.648,12.989,12.989,0,0,0-6.2-1.378,13.134,13.134,0,0,0-6.226,1.378,12.331,12.331,0,0,0-4.261,3.648,15.732,15.732,0,0,0-2.45,5.129,22.072,22.072,0,0,0,0,11.712Z" fill="#fcfcfc"/>
      </g>
    </g>
  </g>
</svg>
