<svg xmlns="http://www.w3.org/2000/svg" width="234" height="204.257" viewBox="0 0 234 204.257">
  <g id="Grupo_17" data-name="Grupo 17" transform="translate(-100.605 -462.593)">
    <path id="Caminho_25" data-name="Caminho 25" d="M254.484,480.539l-26.935-15.544c-5.557-3.2-14.627-3.2-20.183,0l-16.6,9.569-.63.367,7.991,8.584c5.4,5.206,12.348,11.916,18.866,18.236,7.389,7.18,14.23,13.869,17.685,17.342.155.151.3.278.438.406a4.99,4.99,0,0,0,1.789,1.109,2.04,2.04,0,0,0,2.513-1.243l-.012.053v.006l-.014.044a.27.27,0,0,1,.014-.05l-.18.668a5.715,5.715,0,0,1-.323.8,3.343,3.343,0,0,1-2.076,1.624,3.436,3.436,0,0,1-1.08.109l-2.551-.167-30.48-1.97s-16.174-15.725-16.86-26.206c-.165-2.729,2.4-18.246,2.4-18.246l-7.822,4.516c-5.569,3.19-10.09,11.064-10.09,17.481V529.12c0,4.865,2.6,10.558,6.272,14.422l-6.144,10.34L202.1,521.24l33.143,2.4L182.3,547.691l.183.1-.014.014,4.214,2.429h.014l20.673,11.92c5.556,3.2,14.626,3.2,20.183,0L254.484,546.6c5.554-3.19,10.1-11.064,10.1-17.481V501.273l-7.452,1.614L243.374,506.1l2.73-10.173a2.349,2.349,0,0,1,2.282-1.753,2.844,2.844,0,0,1,.686.1c.087.034.164.058.269.092l1.134.438,14.113,5.2v-1.965c0-6.417-4.55-14.291-10.1-17.493m-4.873,13.4c0-.008-.028-.008-.028-.019a.049.049,0,0,1-.022-.008c-.014-.014-.014-.024-.041-.024a3.075,3.075,0,0,0-.567-.238c-.026-.014-.05-.022-.092-.042a3.74,3.74,0,0,0-.682-.131c-.035,0-.077-.009-.128-.009-1-.024-2.217.509-2.875,2.933l-2.629,9.911-3.3,12.354a1.792,1.792,0,0,1-.389.708,1.7,1.7,0,0,1-2.436.079l-18.544-18.02,26.006-8.782a5.459,5.459,0,0,1,4.743.63l1.007.664a.073.073,0,0,0-.027-.006" fill="#000"/>
    <path id="Caminho_26" data-name="Caminho 26" d="M125.85,637.614c11.908,0,25.22-4.528,25.3-18.46,0-14.029-12.255-16.517-24.678-18.476-9.149-1.514-16.881-3.461-16.881-10.2,0-7.553,8.453-10.666,16.339-10.666,6.279.084,12.785,2.134,16.47,6.558a2.063,2.063,0,0,0,2.68.419,4.553,4.553,0,0,0,.956-6.977c-5.4-5.671-12.7-6.926-20.284-6.926-10.739,0-23.959,4.446-23.791,17.4,0,12.618,11.635,15.368,23.623,17.231,9.331,1.424,18.027,3.648,17.938,11.373,0,9.145-10.025,11.544-17.592,11.544-6.674,0-13.906-2.72-18.273-8.332a3.65,3.65,0,0,0-4.705-.839,3.963,3.963,0,0,0-1.249,5.69c5.387,7.636,14.563,10.663,24.15,10.663" fill="#000"/>
    <path id="Caminho_27" data-name="Caminho 27" d="M273.878,625.4a4.109,4.109,0,0,0-5.321-.335,25.681,25.681,0,0,1-15.005,4.919c-16.793,0-24.51-11.814-24.691-24.432-.1-12.867,7.99-24.942,24.691-24.942a25.012,25.012,0,0,1,14.745,4.672,4.226,4.226,0,0,0,5.375-.279,3.244,3.244,0,0,0-.207-4.922,32.212,32.212,0,0,0-19.913-6.844c-21.844,0-32.6,15.986-32.422,32.411.089,16.529,10.491,31.7,32.422,31.7a32.861,32.861,0,0,0,20.03-6.571,3.582,3.582,0,0,0,.3-5.373" fill="#000"/>
    <path id="Caminho_28" data-name="Caminho 28" d="M192,637.349a32.8,32.8,0,0,0,20.028-6.572,3.566,3.566,0,0,0,.312-5.372,4.117,4.117,0,0,0-5.325-.335A25.652,25.652,0,0,1,192,629.986c-16.779,0-24.514-11.813-24.693-24.429-.077-12.868,8-24.942,24.693-24.942a24.974,24.974,0,0,1,14.745,4.67,4.223,4.223,0,0,0,5.374-.277,3.249,3.249,0,0,0-.2-4.925A32.213,32.213,0,0,0,192,573.242c-21.858,0-32.579,15.986-32.414,32.41.091,16.53,10.479,31.7,32.414,31.7" fill="#000"/>
    <path id="Caminho_29" data-name="Caminho 29" d="M319,632.809a3.584,3.584,0,0,0,3.569,3.576,4.246,4.246,0,0,0,4.242-4.246v-8.81h3.955a3.6,3.6,0,0,0,0-7.2h-3.955V580.486a6.268,6.268,0,0,0-6.252-6.273h-2.163a8.333,8.333,0,0,0-6.52,3.146l-27.27,34.25a9.767,9.767,0,0,0-2.054,7.234,5.133,5.133,0,0,0,5.093,4.486H319Zm-22.952-16.678a2.794,2.794,0,0,1-2.18-4.542l20.957-26.26A2.336,2.336,0,0,1,319,586.78v29.351Z" fill="#000"/>
    <path id="Caminho_30" data-name="Caminho 30" d="M111.235,648H100.6v1.455h4.536V661.1H106.7V649.458h4.536Z" fill="#000"/>
    <path id="Caminho_31" data-name="Caminho 31" d="M115.244,651.522a4.71,4.71,0,0,0-4.781,4.851,4.6,4.6,0,0,0,4.781,4.845,5.077,5.077,0,0,0,4.036-1.81l.179-.226-1.083-.874-.194.244a3.882,3.882,0,0,1-2.938,1.221,3.16,3.16,0,0,1-3.261-2.682h7.888l.04-.26a4.9,4.9,0,0,0-1.071-3.866,4.736,4.736,0,0,0-3.6-1.443m0,1.4a2.947,2.947,0,0,1,3.273,2.8h-6.534a3.22,3.22,0,0,1,3.261-2.8" fill="#000"/>
    <path id="Caminho_32" data-name="Caminho 32" d="M126.971,653.005a3.435,3.435,0,0,1,2.436.963l.207.2.991-.957-.206-.23a4.873,4.873,0,0,0-3.428-1.4,4.617,4.617,0,0,0-4.833,4.8,4.67,4.67,0,0,0,4.833,4.813,4.771,4.771,0,0,0,3.428-1.413l.206-.2-.991-1.016-.23.212a3.41,3.41,0,0,1-2.413,1,3.384,3.384,0,1,1,0-6.768" fill="#000"/>
    <path id="Caminho_33" data-name="Caminho 33" d="M137.062,651.509a3.989,3.989,0,0,0-2.846,1.139v-.985h-1.458v9.44h1.467v-5.221a2.794,2.794,0,0,1,2.8-2.918h.053a2.536,2.536,0,0,1,2.807,2.759v5.38h1.473v-5.4a3.979,3.979,0,0,0-4.294-4.194" fill="#000"/>
    <path id="Caminho_34" data-name="Caminho 34" d="M148.493,651.508A4.684,4.684,0,0,0,143.7,656.4a4.794,4.794,0,1,0,9.587,0,4.689,4.689,0,0,0-4.795-4.891m0,8.265a3.207,3.207,0,0,1-3.325-3.374,3.34,3.34,0,1,1,6.675,0,3.217,3.217,0,0,1-3.35,3.374" fill="#000"/>
    <rect id="Retângulo_6" data-name="Retângulo 6" width="1.469" height="13.127" transform="translate(155.788 647.976)" fill="#000"/>
    <path id="Caminho_35" data-name="Caminho 35" d="M164.566,651.508a4.689,4.689,0,0,0-4.795,4.891,4.788,4.788,0,1,0,9.575,0,4.677,4.677,0,0,0-4.78-4.891m0,8.265a3.205,3.205,0,0,1-3.326-3.374,3.335,3.335,0,1,1,6.664,0,3.217,3.217,0,0,1-3.338,3.374" fill="#000"/>
    <path id="Caminho_36" data-name="Caminho 36" d="M178.369,659.839a4.538,4.538,0,0,0,1.983-3.717,4.456,4.456,0,0,0-.992-3.01l.889-1.036-1.019-.9-.889,1.036a4.859,4.859,0,0,0-2.45-.707,4.589,4.589,0,0,0,0,9.174c1.471,0,3.055.627,3.055,2.351,0,2.2-2.347,2.379-3.055,2.379-1.453,0-3.013-.632-3.013-2.379v-.289h-1.471v.289c0,2.29,1.8,3.816,4.484,3.816,2.772,0,4.5-1.451,4.5-3.816a3.445,3.445,0,0,0-2.022-3.2m-2.478-6.857a2.887,2.887,0,0,1,3.017,3.14,3.1,3.1,0,0,1-3.017,3.094,2.941,2.941,0,0,1-2.975-3.094,2.833,2.833,0,0,1,2.975-3.14" fill="#000"/>
    <rect id="Retângulo_7" data-name="Retângulo 7" width="1.471" height="9.474" transform="translate(182.644 651.63)" fill="#000"/>
    <path id="Caminho_37" data-name="Caminho 37" d="M182.388,649.085a.973.973,0,0,0,1.019.993.958.958,0,0,0,.991-.993,1,1,0,0,0-2.01,0" fill="#000"/>
    <path id="Caminho_38" data-name="Caminho 38" d="M194.722,652.963a4.428,4.428,0,0,0-3.324-1.4,4.839,4.839,0,0,0,0,9.678,4.384,4.384,0,0,0,3.324-1.424V661.1h1.467v-9.44h-1.467Zm-3.324.042a3.244,3.244,0,0,1,3.4,3.38,3.557,3.557,0,0,1-.851,2.353,3.315,3.315,0,0,1-2.551,1.057,3.4,3.4,0,0,1,0-6.79" fill="#000"/>
    <path id="Caminho_39" data-name="Caminho 39" d="M210.033,651.539a4.613,4.613,0,0,0-3.53,1.556v-1.431h-1.457v13.117h1.431v-5.045a4.351,4.351,0,0,0,3.35,1.53,4.868,4.868,0,0,0,.206-9.727m-.206,8.294a3.43,3.43,0,0,1,0-6.851,3.427,3.427,0,0,1,0,6.851" fill="#000"/>
    <path id="Caminho_40" data-name="Caminho 40" d="M224.867,652.963a4.412,4.412,0,0,0-3.326-1.4,4.839,4.839,0,0,0,0,9.678,4.4,4.4,0,0,0,3.326-1.424V661.1h1.483v-9.44h-1.483Zm-3.326.042a3.249,3.249,0,0,1,3.4,3.38,3.535,3.535,0,0,1-.836,2.353,3.343,3.343,0,0,1-2.565,1.057,3.4,3.4,0,0,1,0-6.79" fill="#000"/>
    <path id="Caminho_41" data-name="Caminho 41" d="M233.386,651.578h-.092a3.685,3.685,0,0,0-2.67,1.033l-.008-.948H229.2V661.1h1.469V655.66a2.623,2.623,0,0,1,2.628-2.655,2.4,2.4,0,0,1,1.327.365l.287.149.682-1.231-.258-.149a3.692,3.692,0,0,0-1.946-.561" fill="#000"/>
    <path id="Caminho_42" data-name="Caminho 42" d="M244.92,652.963a4.451,4.451,0,0,0-3.324-1.4,4.839,4.839,0,0,0,0,9.678,4.411,4.411,0,0,0,3.324-1.43v1.3h1.456v-9.44H244.92Zm-3.324.042a3.248,3.248,0,0,1,3.388,3.38,3.556,3.556,0,0,1-.85,2.353,3.4,3.4,0,1,1-2.538-5.733" fill="#000"/>
    <path id="Caminho_43" data-name="Caminho 43" d="M256.958,647.975H255.4V661.1h8.61v-1.515h-7.049Z" fill="#000"/>
    <path id="Caminho_44" data-name="Caminho 44" d="M270.528,651.508a4.676,4.676,0,0,0-4.792,4.891,4.787,4.787,0,1,0,9.573,0,4.677,4.677,0,0,0-4.781-4.891m0,8.265a3.21,3.21,0,0,1-3.339-3.374,3.334,3.334,0,1,1,6.663,0,3.2,3.2,0,0,1-3.324,3.374" fill="#000"/>
    <path id="Caminho_45" data-name="Caminho 45" d="M284.32,659.839a4.689,4.689,0,0,0,1.005-6.727l.875-1.036-1.019-.9-.875,1.036a4.869,4.869,0,0,0-2.464-.707,4.59,4.59,0,0,0,0,9.174c1.485,0,3.055.627,3.055,2.351,0,2.2-2.333,2.379-3.055,2.379-1.441,0-3-.632-3-2.379v-.289h-1.471v.289c0,2.29,1.79,3.816,4.47,3.816,2.783,0,4.512-1.451,4.512-3.816a3.416,3.416,0,0,0-2.034-3.2m-2.478-6.857a2.9,2.9,0,0,1,3.031,3.14,3.1,3.1,0,0,1-3.031,3.094,2.939,2.939,0,0,1-2.963-3.094,2.829,2.829,0,0,1,2.963-3.14" fill="#000"/>
    <path id="Caminho_46" data-name="Caminho 46" d="M288.352,650.289v.428h1.289l1.277-2.3.038-.083v-.375h-1.483Z" fill="#000"/>
    <rect id="Retângulo_8" data-name="Retângulo 8" width="1.469" height="9.474" transform="translate(288.442 651.63)" fill="#000"/>
    <path id="Caminho_47" data-name="Caminho 47" d="M296.7,655.626l-.311-.051c-1.261-.226-2.3-.472-2.331-1.311a1.028,1.028,0,0,1,.269-.7,2.968,2.968,0,0,1,2.048-.618h.052A3.486,3.486,0,0,1,299,653.8l.2.189.954-.994-.234-.206a4.912,4.912,0,0,0-3.493-1.266h-.052a4.281,4.281,0,0,0-3.053,1.042,2.342,2.342,0,0,0-.709,1.733c.037,2.048,2.063,2.4,3.7,2.668,1.609.244,2.656.5,2.628,1.441-.049,1.259-1.738,1.406-2.46,1.406a3.611,3.611,0,0,1-2.989-1.372l-.193-.283-1.082.959.141.22a4.76,4.76,0,0,0,4.1,1.9c.916,0,3.87-.2,3.947-2.751.088-2.23-2.1-2.589-3.7-2.861" fill="#000"/>
    <path id="Caminho_48" data-name="Caminho 48" d="M308.006,659.5a3.024,3.024,0,0,1-1.239.335c-1.005,0-1.312-.43-1.312-1.745v-5.082h3v-1.342h-3v-2.691l-1.471.151v2.54h-1.867v1.342h1.867v5.082c0,2.114.9,3.129,2.783,3.129a4.167,4.167,0,0,0,1.806-.46l.242-.141-.525-1.259Z" fill="#000"/>
    <rect id="Retângulo_9" data-name="Retângulo 9" width="1.483" height="9.474" transform="translate(310.944 651.63)" fill="#000"/>
    <path id="Caminho_49" data-name="Caminho 49" d="M310.7,649.085a1.006,1.006,0,0,0,2.012,0,1.006,1.006,0,0,0-2.012,0" fill="#000"/>
    <path id="Caminho_50" data-name="Caminho 50" d="M319.733,653.005a3.467,3.467,0,0,1,2.437.963l.206.2.991-.957-.218-.23a4.845,4.845,0,0,0-3.416-1.4,4.614,4.614,0,0,0-4.847,4.8,4.668,4.668,0,0,0,4.847,4.813,4.816,4.816,0,0,0,3.428-1.413l.206-.2-1.005-1.016-.22.212a3.443,3.443,0,0,1-2.409,1,3.384,3.384,0,1,1,0-6.768" fill="#000"/>
    <path id="Caminho_51" data-name="Caminho 51" d="M333.136,651.663v1.3a4.486,4.486,0,0,0-3.313-1.4,4.839,4.839,0,0,0,0,9.678,4.392,4.392,0,0,0,3.313-1.424V661.1h1.469v-9.44Zm-3.313,1.342a3.229,3.229,0,0,1,3.378,3.38,3.485,3.485,0,0,1-.836,2.353,3.33,3.33,0,0,1-2.542,1.057,3.4,3.4,0,0,1,0-6.79" fill="#000"/>
  </g>
</svg>
