<?xml version="1.0" encoding="UTF-8"?>
<svg version="1.1" xmlns="http://www.w3.org/2000/svg" width="3180" height="972">
<path d="M0 0 C5.33067402 3.12689036 10.68606206 6.2107055 16.04150391 9.29492188 C17.12117432 9.91713623 18.20084473 10.53935059 19.31323242 11.18041992 C21.50347155 12.4425723 23.69382003 13.70453492 25.88427734 14.96630859 C31.31310333 18.09422336 36.73969672 21.22600635 42.16650391 24.35742188 C44.33315973 25.60744066 46.4998264 26.85744066 48.66650391 28.10742188 C107.16650391 61.85742188 107.16650391 61.85742188 165.66650391 95.60742188 C166.73980957 96.22657471 167.81311523 96.84572754 168.91894531 97.48364258 C171.07769094 98.72919758 173.23622092 99.97512641 175.39453125 101.22143555 C180.93064817 104.41760031 186.47077734 107.60646293 192.01806641 110.78320312 C245.42599961 141.39600013 285.30770833 181.11482707 303.16650391 241.85742188 C307.00299548 256.38396482 309.31810997 270.39862362 309.3069458 285.42243958 C309.31140248 287.30531057 309.31140248 287.30531057 309.3159492 289.22621936 C309.32397542 292.69455335 309.32580632 296.1628666 309.32654667 299.63120878 C309.32840498 303.3785751 309.33595635 307.12593086 309.34268188 310.87329102 C309.35623622 319.06184692 309.36228586 327.25039792 309.36669254 335.43896317 C309.36946079 340.5595925 309.37369928 345.68021995 309.37819672 350.80084801 C309.39038733 364.99917513 309.40068593 379.19750077 309.40407181 393.39583302 C309.40429137 394.30376424 309.40451094 395.21169547 309.40473716 396.14713977 C309.40495544 397.05716017 309.40517372 397.96718057 309.40539861 398.90477735 C309.40584206 400.74861133 309.40628863 402.59244531 309.40673828 404.4362793 C309.40695971 405.35087135 309.40718114 406.26546341 309.40740928 407.20777037 C309.41135185 422.0060277 309.42879025 436.80423562 309.4520978 451.60247389 C309.47587528 466.82295788 309.48827662 482.04341716 309.48943973 497.26392001 C309.49035309 505.79848497 309.49601909 514.3329856 309.51425934 522.86753273 C309.52974716 530.13953435 309.5347302 537.41145177 309.52652124 544.68346677 C309.52264472 548.38610186 309.5233951 552.08856786 309.53757858 555.79118156 C309.6060854 574.76252573 308.99113558 592.99695751 303.47900391 611.29492188 C303.2240918 612.15778809 302.96917969 613.0206543 302.70654297 613.90966797 C287.49663442 663.89157174 255.31041431 706.58704933 210.16650391 732.85742188 C209.20164062 733.41945313 208.23677734 733.98148438 207.24267578 734.56054688 C200.68982022 738.3689026 194.12012603 742.14750884 187.54541016 745.91796875 C182.08026189 749.05490067 176.62373176 752.20673836 171.16650391 755.35742188 C168.99988062 756.60749707 166.8332139 757.85749698 164.66650391 759.10742188 C163.05775391 760.03554687 163.05775391 760.03554687 161.41650391 760.98242188 C47.66650392 826.60742187 47.66650392 826.60742187 44.41601562 828.48266602 C42.2509332 829.73177706 40.08589408 830.98096317 37.92089844 832.23022461 C32.48034685 835.36944497 27.03903175 838.5073275 21.59619141 841.64257812 C19.41128841 842.90168028 17.22639255 844.16079482 15.04150391 845.41992188 C13.96747314 846.03834961 12.89344238 846.65677734 11.78686523 847.29394531 C6.48940341 850.34803504 1.20259566 853.41827773 -4.06396484 856.52539062 C-33.59828134 873.94566351 -61.42968277 886.94321557 -95.83349609 890.85742188 C-96.81705078 890.96957031 -97.80060547 891.08171875 -98.81396484 891.19726562 C-137.56129892 894.85645759 -178.65657475 889.09151886 -212.83349609 869.85742188 C-214.30931152 869.02960205 -214.30931152 869.02960205 -215.81494141 868.18505859 C-223.59032987 863.80609388 -231.32418242 859.3572065 -239.04858398 854.88916016 C-241.8656673 853.26079275 -244.68562219 851.63741782 -247.50537109 850.01367188 C-252.87785768 846.91864363 -258.2472969 843.81837401 -263.61572266 840.71630859 C-269.02020255 837.59417582 -274.42697022 834.47600983 -279.83349609 831.35742188 C-282.0001736 830.10744066 -284.16684027 828.85744066 -286.33349609 827.60742188 C-287.40599609 826.98867188 -288.47849609 826.36992188 -289.58349609 825.73242188 C-292.83349609 823.85742187 -296.08349609 821.98242188 -299.33349609 820.10742188 C-300.40615723 819.48859131 -301.47881836 818.86976074 -302.58398438 818.23217773 C-304.7490668 816.98306669 -306.91410592 815.73388058 -309.07910156 814.48461914 C-314.51965315 811.34539878 -319.96096825 808.20751625 -325.40380859 805.07226562 C-335.85555809 799.04994859 -346.29649157 793.0107285 -356.70849609 786.91992188 C-365.97679842 781.49920171 -375.28813973 776.15682504 -384.61691284 770.84121704 C-393.85960527 765.57347381 -403.06517321 760.24507196 -412.24316406 754.86523438 C-416.88449443 752.14790411 -421.53412225 749.45006726 -426.22021484 746.81054688 C-437.3651444 740.53210582 -448.22775877 733.92042289 -458.97802734 726.98632812 C-459.7973877 726.46055176 -460.61674805 725.93477539 -461.4609375 725.39306641 C-463.03008169 724.37743388 -464.58994556 723.34730298 -466.13964844 722.30224609 C-466.84686035 721.83447754 -467.55407227 721.36670898 -468.28271484 720.88476562 C-469.20636841 720.26009399 -469.20636841 720.26009399 -470.14868164 719.62280273 C-472.02075678 718.54190263 -472.02075678 718.54190263 -474.83349609 719.85742188 C-476.30974813 721.3136876 -476.30974813 721.3136876 -477.77099609 723.16992188 C-480.86438532 726.81570203 -484.12846266 730.24162278 -487.52099609 733.60742188 C-488.03098145 734.114104 -488.5409668 734.62078613 -489.06640625 735.14282227 C-491.18652758 737.24483135 -493.31140058 739.34200766 -495.43603516 741.43945312 C-500.79963544 746.74057125 -506.07935606 752.03848113 -510.97802734 757.77929688 C-515.6795819 763.04503798 -520.83946754 767.91023316 -525.86328125 772.86669922 C-531.22773591 778.1657127 -536.53741938 783.45713955 -541.41357422 789.21875 C-542.82072013 790.84267767 -544.29640276 792.35687162 -545.83349609 793.85742188 C-546.49349609 793.52742187 -547.15349609 793.19742188 -547.83349609 792.85742188 C-542.13706707 782.49887478 -536.1601029 772.32683513 -530.05688477 762.203125 C-526.36027708 756.06989939 -522.68007037 749.92788794 -519.02880859 743.76757812 C-518.41777786 742.73686691 -518.41777786 742.73686691 -517.79440308 741.68533325 C-515.74250528 738.22287271 -513.6929381 734.75904925 -511.64550781 731.29394531 C-508.20468023 725.47826307 -504.75154401 719.67868562 -501.14599609 713.96289062 C-500.61844727 713.12363037 -500.09089844 712.28437012 -499.54736328 711.41967773 C-498.60608357 709.9328765 -497.6544034 708.45258193 -496.68994141 706.98071289 C-494.42988545 703.66674429 -494.42988545 703.66674429 -494.09155273 699.8269043 C-495.29660255 696.62810966 -497.73913482 694.39830881 -500.02099609 691.91992188 C-528.23308347 659.97614476 -549.21438886 614.67556066 -549.10092163 571.60379028 C-549.10545274 570.32274064 -549.10998386 569.041691 -549.11465228 567.72182167 C-549.12677948 564.19988512 -549.12663408 560.67804429 -549.12426353 557.15609169 C-549.12385271 553.34397067 -549.13491981 549.53187928 -549.14437866 545.71977234 C-549.16093484 538.26237578 -549.16648583 530.80501085 -549.16760342 523.34759744 C-549.16855679 517.27779718 -549.17268146 511.20800727 -549.17900467 505.1382103 C-549.19660512 487.88922596 -549.20584582 470.64026642 -549.20434372 453.39127304 C-549.20426381 452.46293418 -549.2041839 451.53459533 -549.20410156 450.578125 C-549.2040198 449.64863819 -549.20393804 448.71915139 -549.2038538 447.76149832 C-549.20304202 432.71977366 -549.22215552 417.67814941 -549.2503783 402.63645376 C-549.27919895 387.1525306 -549.29291345 371.66865624 -549.29119074 356.18470562 C-549.29052983 347.5075658 -549.29588953 338.83053115 -549.31754684 330.15341568 C-549.33588032 322.76116707 -549.34000756 315.36907124 -549.326528 307.97680958 C-549.32005802 304.21499876 -549.31966033 300.45347996 -549.3372345 296.69169807 C-549.43174634 275.10773786 -547.87410994 254.7849575 -540.70849609 234.29492188 C-540.32161621 233.16707275 -539.93473633 232.03922363 -539.53613281 230.87719727 C-529.90963691 203.55839797 -514.92157344 178.36279778 -495.06005859 157.24023438 C-493.08574336 155.1273707 -491.23857262 152.95923237 -489.39599609 150.73242188 C-485.08634872 145.78841051 -479.98488123 141.88266751 -474.83349609 137.85742188 C-473.92059814 137.14336182 -473.0077002 136.42930176 -472.06713867 135.69360352 C-465.22420674 130.44886603 -458.22473268 125.94281991 -450.70849609 121.73242188 C-448.99872968 120.76033694 -447.2889707 119.78823866 -445.57965088 118.81536865 C-443.82416992 117.81749895 -442.06677962 116.8230606 -440.30908203 115.82910156 C-434.79905709 112.70329646 -429.3172983 109.52892769 -423.83349609 106.35742188 C-421.66697591 105.10716801 -419.50030892 103.85716849 -417.33349609 102.60742188 C-416.26099609 101.98867187 -415.18849609 101.36992187 -414.08349609 100.73242188 C-352.3334961 65.10742188 -352.3334961 65.10742188 -349.08300781 63.23217773 C-346.91792539 61.98306669 -344.75288627 60.73388058 -342.58789062 59.48461914 C-337.14733904 56.34539878 -331.70602394 53.20751625 -326.26318359 50.07226562 C-315.8114341 44.04994859 -305.37050061 38.0107285 -294.95849609 31.91992188 C-285.68955233 26.49882656 -276.37780338 21.15563314 -267.04806519 15.84020996 C-258.84380864 11.16507551 -250.6691656 6.44233528 -242.52099609 1.66992188 C-213.97436237 -15.01446827 -187.73806356 -29.47059925 -154.83349609 -35.14257812 C-154.15657715 -35.26117188 -153.4796582 -35.37976562 -152.78222656 -35.50195312 C-96.77592315 -44.76511726 -47.52111665 -27.98408178 0 0 Z " fill="#FAB14B" transform="translate(548.83349609375,37.142578125)"/>
<path d="M0 0 C1.08698181 -0.00101212 1.08698181 -0.00101212 2.19592285 -0.00204468 C47.49309697 0.064492 82.82103055 14.78709133 121.20849609 37.39257812 C126.53917011 40.51946848 131.89455815 43.60328362 137.25 46.6875 C138.32967041 47.30971436 139.40934082 47.93192871 140.52172852 48.57299805 C142.71196764 49.83515042 144.90231612 51.09711305 147.09277344 52.35888672 C152.52159942 55.48680148 157.94819281 58.61858448 163.375 61.75 C165.54165583 63.00001879 167.7083225 64.25001878 169.875 65.5 C208.875 88 247.875 110.5 286.875 133 C287.94830566 133.61915283 289.02161133 134.23830566 290.12744141 134.8762207 C292.28618703 136.12177571 294.44471701 137.36770454 296.60302734 138.61401367 C302.13914426 141.81017844 307.67927343 144.99904106 313.2265625 148.17578125 C366.6344957 178.78857825 406.51620442 218.50740519 424.375 279.25 C428.54133773 295.02547683 430.53531343 309.98344224 430.4375 326.25 C430.43247576 327.70702971 430.42791449 329.1640611 430.42382812 330.62109375 C430.41289388 334.1640977 430.39568 337.70703797 430.375 341.25 C429.73852539 341.01627686 429.10205078 340.78255371 428.44628906 340.54174805 C425.17267602 339.339923 421.89886732 338.13863221 418.625 336.9375 C417.98320801 336.70202454 417.34141602 336.46654907 416.68017578 336.22393799 C406.20223767 332.38019111 395.71990061 328.54858593 385.23484802 324.72428894 C379.71567308 322.71086405 374.19765291 320.69437183 368.68188477 318.67163086 C366.42988818 317.84608796 364.17785355 317.02064884 361.92578125 316.1953125 C360.80688004 315.78525467 359.68797882 315.37519684 358.53517151 314.95271301 C351.80727 312.49171228 345.06892892 310.06244674 338.3197937 307.66030884 C334.07140646 306.14584534 329.82844597 304.61654078 325.58618164 303.08502197 C323.59002308 302.36871776 321.59134943 301.65937941 319.59008789 300.9574585 C316.81759458 299.98431733 314.05485916 298.98714324 311.29296875 297.984375 C310.48804489 297.70898895 309.68312103 297.43360291 308.85380554 297.14987183 C303.75771071 295.26410692 300.54947777 292.89924215 296.92842102 288.83917236 C294.73624092 286.59654014 292.24511057 285.44004585 289.375 284.25 C289.375 283.59 289.375 282.93 289.375 282.25 C288.28058594 281.83041016 288.28058594 281.83041016 287.1640625 281.40234375 C284.58820793 280.33809011 282.20332361 279.12941786 279.75 277.8125 C267.07307193 271.48339854 255.1945466 270.4852289 241.70703125 274.6875 C240.84608856 274.95114853 239.98514587 275.21479706 239.09811401 275.48643494 C227.33120466 279.13454019 215.68160105 283.14446453 204.0233078 287.12267303 C200.52905413 288.31400458 197.03331096 289.5009479 193.53759766 290.68798828 C192.45051671 291.0571423 192.45051671 291.0571423 191.34147453 291.43375397 C189.84777367 291.94097746 188.35406721 292.44818448 186.86035538 292.95537567 C184.55326833 293.7389106 182.24633268 294.52288999 179.93942261 295.3069458 C162.70990616 301.16154729 145.46529278 306.97129325 128.22076416 312.78149414 C122.75349961 314.62366805 117.28661327 316.46696243 111.81982422 318.31054688 C110.91867826 318.61443769 110.01753231 318.91832851 109.0890789 319.23142815 C107.27111231 319.84449796 105.45314649 320.45757003 103.63518143 321.07064438 C91.14721391 325.28193383 78.65876772 329.4917906 66.16880226 333.69715118 C59.49945243 335.94285585 52.83077059 338.19053638 46.16258812 340.4397049 C42.29303587 341.74480471 38.42316079 343.04892658 34.5524292 344.3505249 C30.97982147 345.55187712 27.40810655 346.75584632 23.83705521 347.96181679 C21.93785664 348.60243368 20.03771913 349.24026487 18.13754272 349.87797546 C12.10153898 351.91925076 6.15799131 354.06586756 0.28375244 356.53746033 C-1.625 357.25 -1.625 357.25 -3.625 357.25 C-3.625 356.59 -3.625 355.93 -3.625 355.25 C-4.51967987 354.8437867 -4.51967987 354.8437867 -5.43243408 354.42936707 C-7.6007523 353.26304268 -8.98762602 352.12418908 -10.70605469 350.38012695 C-11.56780304 349.51331047 -11.56780304 349.51331047 -12.44696045 348.62898254 C-13.05743225 348.00505112 -13.66790405 347.38111969 -14.296875 346.73828125 C-15.25874725 345.76860664 -15.25874725 345.76860664 -16.24005127 344.77934265 C-18.28984762 342.71175974 -20.33285445 340.63763776 -22.375 338.5625 C-24.40366262 336.50603754 -26.4338256 334.45111681 -28.46710205 332.3992157 C-29.73002666 331.12423441 -30.9902734 329.84659246 -32.24725342 328.56575012 C-35.95569067 324.81606066 -39.80209041 321.30202314 -43.79327393 317.8556366 C-46.12794823 315.80913054 -48.32207484 313.64933749 -50.5 311.4375 C-51.34046875 310.58929688 -52.1809375 309.74109375 -53.046875 308.8671875 C-54.765625 307.12239583 -56.484375 305.37760417 -58.203125 303.6328125 C-61.87586868 299.92627057 -65.52924931 296.26326454 -69.5 292.875 C-75.75389289 287.51272638 -81.42344102 281.50602363 -87.20703125 275.64746094 C-92.50814938 270.28386065 -97.80605925 265.00414004 -103.546875 260.10546875 C-108.8126161 255.40391419 -113.67781128 250.24402855 -118.63427734 245.22021484 C-123.8076265 239.98297642 -128.99060807 234.8459728 -134.59179688 230.06054688 C-139.92769004 225.30898783 -144.83376012 220.07411276 -149.84765625 214.98828125 C-154.33756291 210.45916143 -158.86614608 206.08441996 -163.70849609 201.93505859 C-167.18343364 198.87976956 -170.42638594 195.59259242 -173.6875 192.3125 C-174.35587891 191.64798828 -175.02425781 190.98347656 -175.71289062 190.29882812 C-179.65289697 186.35116385 -183.40810346 182.29927974 -187.03100586 178.05834961 C-188.66071275 176.2094847 -190.36534523 174.47493326 -192.125 172.75 C-195.21856643 169.71167583 -198.04605507 166.5023468 -200.875 163.21875 C-203.07494895 160.74380743 -205.41881445 158.44286326 -207.78149414 156.12475586 C-209.55836641 154.31776312 -211.21936873 152.45655066 -212.87109375 150.53515625 C-216.53903148 146.31707629 -220.34153134 142.24299711 -224.1875 138.1875 C-225.5875264 136.70600016 -226.98725972 135.2242233 -228.38671875 133.7421875 C-229.08845215 132.99936523 -229.79018555 132.25654297 -230.51318359 131.49121094 C-234.45389709 127.30904332 -238.36860835 123.10261541 -242.28344727 118.89624023 C-244.37229057 116.65374629 -246.45776448 114.41723552 -248.625 112.25 C-247.6040625 111.69054687 -246.583125 111.13109375 -245.53125 110.5546875 C-235.62697797 105.10246465 -225.82788134 99.48743204 -216.07177734 93.7746582 C-208.64661248 89.42689843 -201.20505904 85.10879718 -193.75 80.8125 C-192.67041016 80.19028564 -191.59082031 79.56807129 -190.47851562 78.92700195 C-188.2881748 77.66488483 -186.09774498 76.40292215 -183.90722656 75.14111328 C-178.47840058 72.01319852 -173.05180719 68.88141552 -167.625 65.75 C-165.45834417 64.49998121 -163.2916775 63.24998122 -161.125 62 C-160.0525 61.38125 -158.98 60.7625 -157.875 60.125 C-154.625 58.25 -151.375 56.375 -148.125 54.5 C-147.05185547 53.88084717 -145.97871094 53.26169434 -144.87304688 52.6237793 C-142.71299907 51.37766031 -140.55284333 50.13172839 -138.39257812 48.88598633 C-132.87372921 45.70315591 -127.35696998 42.51679089 -121.84375 39.32421875 C-115.44477994 35.62008746 -109.0373442 31.93092187 -102.625 28.25 C-101.75842773 27.75064941 -100.89185547 27.25129883 -99.99902344 26.73681641 C-68.76108813 8.78405175 -36.14535883 0.03042191 0 0 Z " fill="#08BCD6" transform="translate(427.625,-0.25)"/>
<path d="M0 0 C1.17029568 3.51439729 0.85769537 6.21235173 0.29077148 9.84619141 C0.10964813 11.03317627 -0.07147522 12.22016113 -0.25808716 13.44311523 C-0.46295746 14.73290283 -0.66782776 16.02269043 -0.87890625 17.3515625 C-1.08902588 18.71139325 -1.29839149 20.0713407 -1.50704956 21.43139648 C-1.95243469 24.32566126 -2.40244621 27.21915251 -2.85617065 30.11212158 C-3.56549433 34.6364676 -4.26376264 39.16247028 -4.95922852 43.68896484 C-5.07432864 44.43797876 -5.18942877 45.18699268 -5.30801678 45.95870399 C-5.54004284 47.46880498 -5.77202961 48.97891201 -6.00397682 50.48902512 C-6.35170069 52.7508989 -6.70036595 55.01262589 -7.04924011 57.27432251 C-8.91526426 69.381246 -10.71581021 81.49663584 -12.4375 93.625 C-12.616297 94.88444931 -12.616297 94.88444931 -12.79870605 96.16934204 C-14.19591053 106.04250925 -15.55485031 115.92046469 -16.8125 125.8125 C-16.98060181 127.12758545 -16.98060181 127.12758545 -17.15209961 128.46923828 C-19.98583016 151.58830499 -21.17905881 174.60524233 -14 197 C-13.71592285 197.88993652 -13.4318457 198.77987305 -13.13916016 199.69677734 C0.10504739 240.16160007 24.33418445 276.38139653 50 310 C50.58765137 310.77166504 51.17530273 311.54333008 51.78076172 312.33837891 C58.46906287 321.09545013 65.30423515 329.69213011 72.484375 338.05078125 C74.89172596 340.87306382 77.23338476 343.73803723 79.5625 346.625 C83.43812933 351.38807218 87.51234289 355.93364249 91.66796875 360.453125 C93.62405252 362.58941749 95.54187697 364.74780657 97.4375 366.9375 C105.5092116 376.20502072 113.96482724 385.1296548 122.42944336 394.03686523 C126.10268296 397.91779203 129.63155511 401.85122038 133 406 C124.2807479 415.43942632 115.41922487 424.69521715 106.25634766 433.70654297 C102.95201579 436.97207934 99.73565593 440.246952 96.71875 443.78125 C91.31633844 450.06039578 85.28831843 455.7665595 79.39746094 461.58203125 C74.03386065 466.88314938 68.75414004 472.18105925 63.85546875 477.921875 C59.15391419 483.1876161 53.99402855 488.05281128 48.97021484 493.00927734 C42.0655138 499.78314684 42.0655138 499.78314684 35.5625 506.9375 C30.05766671 513.38073225 23.84989699 519.20335153 17.82470703 525.15478516 C12.31426167 530.60380578 6.86835123 536.03680032 1.83789062 541.93945312 C-2.8552129 547.20111542 -8.01214679 552.05890384 -13.02978516 557.00927734 C-19.94906564 563.79964782 -19.94906564 563.79964782 -26.46875 570.96875 C-31.79042569 577.19760209 -37.77635414 582.83040446 -43.60253906 588.58203125 C-50.75824432 595.59702 -50.75824432 595.59702 -57.5 603.00390625 C-60.40242051 606.40616854 -63.50963822 609.57198183 -66.6875 612.71484375 C-67.45356567 613.47264633 -67.45356567 613.47264633 -68.23510742 614.24575806 C-70.3536442 616.33673804 -72.47565665 618.42410044 -74.60253906 620.5065918 C-81.90398912 627.59606843 -81.90398912 627.59606843 -88.40625 635.40625 C-93.387538 642.09344822 -99.56446556 647.73599858 -105.5 653.5625 C-107.8888494 655.9145141 -110.27440665 658.2697974 -112.65625 660.62890625 C-113.22790894 661.19497589 -113.79956787 661.76104553 -114.3885498 662.3442688 C-117.82044703 665.76373893 -121.06042562 669.27883172 -124.19726562 672.97241211 C-128.87069711 678.2287567 -134.02430464 683.0708987 -139.02978516 688.00927734 C-144.39423981 693.30829082 -149.70392328 698.59971767 -154.58007812 704.36132812 C-155.98722404 705.9852558 -157.46290667 707.49944975 -159 709 C-159.66 708.67 -160.32 708.34 -161 708 C-155.30357097 697.64145291 -149.3266068 687.46941326 -143.22338867 677.34570312 C-139.52678099 671.21247751 -135.84657427 665.07046606 -132.1953125 658.91015625 C-131.58428177 657.87944504 -131.58428177 657.87944504 -130.96090698 656.82791138 C-128.90900918 653.36545083 -126.859442 649.90162738 -124.81201172 646.43652344 C-121.37118413 640.6208412 -117.91804792 634.82126374 -114.3125 629.10546875 C-113.78495117 628.2662085 -113.25740234 627.42694824 -112.71386719 626.56225586 C-111.77258747 625.07545463 -110.82090731 623.59516005 -109.85644531 622.12329102 C-107.59638936 618.80932241 -107.59638936 618.80932241 -107.25805664 614.96948242 C-108.46310646 611.77068779 -110.90563873 609.54088693 -113.1875 607.0625 C-141.39958738 575.11872288 -162.38089277 529.81813879 -162.26742554 486.74636841 C-162.27195665 485.46531876 -162.27648776 484.18426912 -162.28115618 482.86439979 C-162.29328338 479.34246325 -162.29313798 475.82062242 -162.29076743 472.29866982 C-162.29035662 468.4865488 -162.30142372 464.67445741 -162.31088257 460.86235046 C-162.32743875 453.4049539 -162.33298974 445.94758897 -162.33410732 438.49017556 C-162.33506069 432.42037531 -162.33918537 426.3505854 -162.34550858 420.28078842 C-162.36310902 403.03180408 -162.37234973 385.78284454 -162.37084763 368.53385116 C-162.37076772 367.60551231 -162.3706878 366.67717346 -162.37060547 365.72070312 C-162.37052371 364.79121632 -162.37044195 363.86172951 -162.37035771 362.90407644 C-162.36954593 347.86235179 -162.38865942 332.82072753 -162.4168822 317.77903189 C-162.44570285 302.29510873 -162.45941736 286.81123437 -162.45769465 271.32728374 C-162.45703374 262.65014393 -162.46239344 253.97310928 -162.48405075 245.2959938 C-162.50238422 237.90374519 -162.50651147 230.51164936 -162.4930319 223.1193877 C-162.48656192 219.35757688 -162.48616424 215.59605809 -162.5037384 211.8342762 C-162.59825025 190.25031599 -161.04061385 169.92753562 -153.875 149.4375 C-153.48812012 148.30965088 -153.10124023 147.18180176 -152.70263672 146.01977539 C-143.07614082 118.70097609 -128.08807735 93.50537591 -108.2265625 72.3828125 C-106.25224726 70.26994882 -104.40507652 68.10181049 -102.5625 65.875 C-98.25285262 60.93098864 -93.15138513 57.02524563 -88 53 C-87.08710205 52.28593994 -86.1742041 51.57187988 -85.23364258 50.83618164 C-78.39070167 45.59143726 -71.39121346 41.08545524 -63.875 36.875 C-62.16734254 35.90396219 -60.4596924 34.93291123 -58.75247192 33.96110535 C-56.9978344 32.96361263 -55.24127987 31.969567 -53.484375 30.97607422 C-47.92848782 27.83038197 -42.4031765 24.63154827 -36.875 21.4375 C-35.81732422 20.82753174 -34.75964844 20.21756348 -33.66992188 19.58911133 C-22.42287379 13.10009983 -11.20871147 6.55497184 0 0 Z " fill="#E6716E" transform="translate(162,122)"/>
<path d="M0 0 C1.03705078 0.12890625 2.07410156 0.2578125 3.14257812 0.390625 C31.29647608 4.0125678 59.15042033 10.58041351 84.28808594 24.08300781 C85.84117402 24.91492436 87.40818203 25.72072309 88.9765625 26.5234375 C100.61720263 32.59535642 111.07380667 40.44777128 121 49 C121.50982422 49.43602539 122.01964844 49.87205078 122.54492188 50.32128906 C129.02104862 55.89773357 134.92686372 61.36624127 139 69 C139.40992188 69.70898438 139.81984375 70.41796875 140.2421875 71.1484375 C144.8718154 80.50347871 144.65540557 93.27641616 141.375 103.0625 C137.0564833 112.9226098 131.01900133 120.54464739 121.625 125.9375 C116.01921715 127.58057428 110.85090172 127.97616835 105.2734375 126.06640625 C100.34645596 122.95617566 96.68503239 118.7683453 92.6875 114.5625 C73.6523181 95.11430203 50.86764148 82.29894067 25 74 C24.17564453 73.73348633 23.35128906 73.46697266 22.50195312 73.19238281 C-31.9288519 55.90382443 -95.37725631 57.27704107 -147 83 C-169.33372761 94.72340006 -185.42881395 112.25750168 -193.09765625 136.46484375 C-197.76508341 155.06942548 -195.86442552 174.45847513 -186 191 C-164.59614364 223.6828493 -118.55212516 233.4373697 -82.93701172 240.99560547 C-66.99333008 244.29242911 -50.89306922 246.84306498 -34.83746338 249.52539062 C90.98959949 270.57190143 90.98959949 270.57190143 133 307 C133.82886719 307.70769531 134.65773438 308.41539062 135.51171875 309.14453125 C162.9931373 333.17499066 176.004383 366.04174556 178.6875 401.9375 C181.12403773 442.78533844 170.99771534 483.68881658 143.640625 514.88671875 C136.97582847 522.29123244 130.02823324 529.06411084 122 535 C120.51113281 536.10214844 120.51113281 536.10214844 118.9921875 537.2265625 C110.68888933 543.16331869 102.01973884 548.24114595 93 553 C92.37770508 553.33354492 91.75541016 553.66708984 91.11425781 554.01074219 C20.85819372 591.15295387 -76.03405706 591.25174061 -150.75 569.015625 C-167.06339558 563.90998419 -183.00758087 557.21940962 -198 549 C-198.67401855 548.63471191 -199.34803711 548.26942383 -200.04248047 547.89306641 C-216.30583917 538.99169096 -230.68013553 527.85865032 -244 515 C-244.98151398 514.08175662 -245.96328848 513.16379164 -246.9453125 512.24609375 C-252.83472696 506.64908204 -258.03725786 500.68424881 -263 494.25 C-263.54003662 493.55310059 -264.08007324 492.85620117 -264.63647461 492.13818359 C-271.60007132 482.88919428 -276.44712361 472.83023552 -275 461 C-273.24175066 452.86809679 -270.7718772 446.07785624 -265 440 C-264.47535156 439.44699219 -263.95070313 438.89398437 -263.41015625 438.32421875 C-256.89344507 432.14484321 -248.74250608 429.42694717 -239.87109375 428.8984375 C-227.18278416 429.34727566 -219.70659582 434.90299661 -211.31640625 443.8671875 C-210.39709434 444.86856023 -209.47915654 445.87119597 -208.5625 446.875 C-208.0780542 447.40311279 -207.5936084 447.93122559 -207.09448242 448.4753418 C-204.60128478 451.20383365 -202.16508971 453.96224708 -199.8125 456.8125 C-168.31503479 493.82647042 -112.6407583 511.55757982 -66.03051758 515.484375 C-26.19727605 518.43157437 16.72757975 513.28816042 53 496 C53.62084473 495.70480469 54.24168945 495.40960937 54.88134766 495.10546875 C63.32162509 491.01037984 70.68775007 485.84548593 78 480 C79.00160156 479.23042969 79.00160156 479.23042969 80.0234375 478.4453125 C96.64506299 465.13296991 105.28887198 444.07583815 107.71875 423.421875 C109.39370752 403.04322517 105.68459682 383.52841404 93 367 C85.22222928 357.85378847 76.4665188 350.81689428 66 345 C65.07429199 344.48445557 65.07429199 344.48445557 64.12988281 343.95849609 C27.05010836 323.68733156 -16.03547505 317.77070048 -57.15337753 310.92221832 C-187.03026037 289.28421716 -187.03026037 289.28421716 -232 246 C-232.64324219 245.41992188 -233.28648438 244.83984375 -233.94921875 244.2421875 C-255.36160784 224.37708061 -264.6902095 193.12519865 -266.16845703 164.76855469 C-267.49766503 126.38280744 -258.85147324 90.81858698 -232.625 61.8125 C-230.77973223 59.84475298 -228.8988496 57.91597415 -227 56 C-226.09894531 55.08605469 -225.19789062 54.17210937 -224.26953125 53.23046875 C-168.28372148 -0.74757405 -73.49134776 -9.35806781 0 0 Z " fill="#555657" transform="translate(1348,126)"/>
<path d="M0 0 C1.14103935 -0.00855011 1.14103935 -0.00855011 2.30513 -0.01727295 C3.90775181 -0.02666762 5.51039245 -0.03323474 7.11303711 -0.03710938 C9.52688538 -0.04677927 11.93986775 -0.07784015 14.35351562 -0.109375 C33.3007087 -0.24045015 48.9970706 4.66549754 62.86328125 18.203125 C73.9352118 31.13781891 77.1807546 45.19646843 77.10379028 61.81349182 C77.10466363 63.18244425 77.10641698 64.55139635 77.10896862 65.92034668 C77.11342079 69.66257523 77.10546794 73.40468835 77.09541249 77.1469022 C77.08674944 81.18972641 77.08970017 85.23254448 77.09121704 89.27537537 C77.09226409 96.27338253 77.08600634 103.2713523 77.07474136 110.26935005 C77.05846488 120.38718785 77.05327616 130.50500762 77.05076538 140.62285709 C77.04639165 157.03967864 77.03309128 173.45648027 77.01416016 189.87329102 C76.99579303 205.81762594 76.9816406 221.76195545 76.97314453 237.70629883 C76.97261908 238.68964286 76.97209364 239.67298689 76.97155227 240.68612922 C76.96894213 245.61943699 76.96641473 250.5527448 76.96392846 255.48605263 C76.94320598 296.39175727 76.90798921 337.29743999 76.86328125 378.203125 C78.08845459 378.18741455 79.31362793 378.1717041 80.57592773 378.15551758 C85.15496148 378.10090079 89.73396686 378.06666011 94.31323242 378.03833008 C96.28886774 378.02331544 98.26447014 378.00289749 100.23999023 377.97680664 C103.0923682 377.94009928 105.94430254 377.92332507 108.796875 377.91015625 C109.66912216 377.89467239 110.54136932 377.87918854 111.44004822 377.86323547 C121.68417434 377.86047271 129.50963196 381.0429928 136.86328125 388.203125 C144.43662435 397.36233909 145.86941179 406.50849075 144.86328125 418.203125 C143.00732407 427.05940389 137.14788595 434.47162931 129.81640625 439.6484375 C122.31671151 443.69827266 114.0504811 444.50864907 105.671875 444.3984375 C104.84115982 444.3956076 104.01044464 444.39277771 103.15455627 444.38986206 C100.5364762 444.37878791 97.91875554 444.3537086 95.30078125 444.328125 C93.5110727 444.31807865 91.72135871 444.30895572 89.93164062 444.30078125 C85.57538521 444.27889065 81.21939387 444.24445133 76.86328125 444.203125 C76.8721637 445.25611282 76.88104614 446.30910065 76.89019775 447.39399719 C76.97154536 457.35333954 77.03137179 467.31261382 77.07052994 477.27221394 C77.09133886 482.39165995 77.11953334 487.51083617 77.16503906 492.63012695 C77.20873666 497.57738558 77.23246862 502.5243859 77.24279022 507.47182274 C77.25013888 509.35233815 77.26448836 511.2328406 77.28620148 513.11324501 C77.44325032 527.2872595 76.57199064 538.90143796 66.42578125 549.828125 C56.96158228 558.59982161 47.72173418 561.72515122 34.94921875 561.47265625 C26.24453313 561.06755511 20.08538108 557.33599829 13.84375 551.42578125 C7.21010292 543.98091894 5.70842702 537.02744883 5.74975586 527.30371094 C5.74960983 526.40579834 5.74946381 525.50788574 5.74931335 524.58276367 C5.75000949 521.61765113 5.75778796 518.65260156 5.765625 515.6875 C5.76749024 513.63055455 5.76891364 511.57360865 5.76991272 509.5166626 C5.77372955 504.10468315 5.78355274 498.69273056 5.7946167 493.28076172 C5.80484873 487.75749068 5.80941418 482.23421529 5.81445312 476.7109375 C5.82517573 465.8749882 5.84224218 455.03905884 5.86328125 444.203125 C5.26343001 444.20426416 4.66357877 444.20540332 4.04555023 444.206577 C-31.54493121 444.27378222 -67.13540169 444.32522051 -102.72593344 444.35632099 C-107.00397526 444.36007289 -111.28201696 444.36395588 -115.56005859 444.36791992 C-116.83752381 444.36910032 -116.83752381 444.36910032 -118.14079641 444.37030456 C-131.91152641 444.38334117 -145.68221865 444.40698536 -159.45292629 444.43458339 C-173.59396672 444.46268621 -187.73498744 444.47931155 -201.87605464 444.48539048 C-210.59447774 444.48949683 -219.31279408 444.50244349 -228.0311843 444.5268744 C-234.01822118 444.54279187 -240.00520327 444.54751183 -245.99225976 444.54362913 C-249.44107105 444.54171689 -252.88969645 444.54454677 -256.33847427 444.56074142 C-294.78602172 444.71471228 -294.78602172 444.71471228 -310.84375 429.578125 C-322.21535147 417.79970303 -323.72642214 404.68173084 -323.61157227 388.94506836 C-323.37481008 379.82677291 -322.16387474 371.81963765 -319.13671875 363.203125 C-318.76289063 362.13191406 -318.3890625 361.06070312 -318.00390625 359.95703125 C-311.60564381 343.32578617 -299.24842621 329.99095122 -288.11254883 316.37402344 C-284.20758493 311.57799009 -280.43101933 306.69717567 -276.69921875 301.765625 C-271.70019443 295.16334 -266.52038078 288.73928142 -261.22900391 282.36962891 C-257.15220506 277.45679664 -253.17470403 272.47896258 -249.25170898 267.44287109 C-245.7517814 262.95952985 -242.17358449 258.54438849 -238.57421875 254.140625 C-234.6868398 249.38143789 -230.86331787 244.58937895 -227.13671875 239.703125 C-222.87463976 234.11475886 -218.47032576 228.65683987 -214.0234375 223.21484375 C-210.51335845 218.91376097 -207.05246199 214.57942877 -203.63671875 210.203125 C-199.67758426 205.13061985 -195.64577159 200.12329456 -191.57421875 195.140625 C-187.68690102 190.38138554 -183.86331984 185.58938153 -180.13671875 180.703125 C-175.87463976 175.11475886 -171.47032576 169.65683987 -167.0234375 164.21484375 C-163.51335845 159.91376097 -160.05246199 155.57942877 -156.63671875 151.203125 C-152.67758426 146.13061985 -148.64577159 141.12329456 -144.57421875 136.140625 C-140.68690102 131.38138554 -136.86331984 126.58938153 -133.13671875 121.703125 C-128.87463976 116.11475886 -124.47032576 110.65683987 -120.0234375 105.21484375 C-116.51335845 100.91376097 -113.05246199 96.57942877 -109.63671875 92.203125 C-105.67758426 87.13061985 -101.64577159 82.12329456 -97.57421875 77.140625 C-93.68690102 72.38138554 -89.86331984 67.58938153 -86.13671875 62.703125 C-81.8776049 57.11864671 -77.48056931 51.66084977 -73.0300293 46.22802734 C-69.89824311 42.39798419 -66.82981223 38.53051905 -63.81811523 34.60546875 C-50.51220719 17.32938339 -34.04276882 4.34802153 -11.98999023 0.6796875 C-7.97864391 0.18357472 -4.03480765 0.02402671 0 0 Z M-39.13671875 110.203125 C-40.03149127 111.33807671 -40.92731044 112.47220412 -41.82421875 113.60546875 C-43.6426496 115.9088145 -45.45054287 118.22000178 -47.25390625 120.53515625 C-50.32889769 124.46761766 -53.47953571 128.33655136 -56.63671875 132.203125 C-62.56161012 139.46626067 -68.36942144 146.81456695 -74.13671875 154.203125 C-80.4441512 162.28365705 -86.81914845 170.2995864 -93.30029297 178.24169922 C-96.79179191 182.5272376 -100.23476655 186.84623884 -103.63671875 191.203125 C-108.11871985 196.94323168 -112.69628432 202.60005746 -117.30078125 208.2421875 C-120.79201958 212.52764118 -124.23490763 216.84641953 -127.63671875 221.203125 C-131.57866921 226.25158787 -135.58702797 231.24069394 -139.63671875 236.203125 C-144.16425947 241.75230559 -148.63187737 247.34228137 -153.04296875 252.984375 C-156.87780423 257.88629514 -160.76394216 262.74571818 -164.65869141 267.60009766 C-167.99159797 271.75897139 -171.2916316 275.94196701 -174.57421875 280.140625 C-179.07930798 285.89930428 -183.6778802 291.5774081 -188.30053711 297.24194336 C-192.24585701 302.08464389 -196.12185122 306.97647628 -199.96166992 311.90307617 C-202.99792734 315.78712333 -206.09943289 319.61191826 -209.22924805 323.42089844 C-216.68404014 332.44839388 -216.68404014 332.44839388 -223.13671875 342.203125 C-223.68972656 343.11964844 -223.68972656 343.11964844 -224.25390625 344.0546875 C-226.51769683 349.56391237 -225.97230994 356.46880204 -224.26171875 362.06640625 C-221.37199321 368.33064681 -217.52876159 373.25648461 -211.12008721 376.09693605 C-205.64733334 377.98864258 -200.85140671 378.62763493 -195.08201599 378.56388855 C-193.78416226 378.56773346 -193.78416226 378.56773346 -192.46008927 378.57165605 C-189.58574684 378.5765636 -186.71193981 378.5601514 -183.83764648 378.54370117 C-181.76737989 378.54285424 -179.69711239 378.54333132 -177.62684631 378.54502869 C-172.02417265 378.54588749 -166.42169266 378.52828012 -160.8190639 378.50730681 C-154.9574347 378.48852102 -149.09580078 378.48678807 -143.23414612 378.48323059 C-132.14212218 378.47391573 -121.05018722 378.44930945 -109.95820242 378.41918212 C-97.32704946 378.38562076 -84.6958922 378.36914773 -72.06470573 378.35409582 C-46.08866079 378.32275946 -20.11269476 378.27000977 5.86328125 378.203125 C5.95488503 344.35914257 6.02534445 310.51519105 6.06754257 276.67111213 C6.07254525 272.67331934 6.07772255 268.6755268 6.08300781 264.67773438 C6.08458168 263.48392782 6.08458168 263.48392782 6.08618733 262.26600395 C6.1035811 249.38816763 6.13511311 236.51040291 6.17189243 223.63260902 C6.2093305 210.41368014 6.23152315 197.1947887 6.23963523 183.97580898 C6.24511707 175.82238673 6.26241581 167.66916689 6.29494712 159.51580696 C6.31613042 153.92078378 6.32247269 148.32586487 6.31728676 142.73080452 C6.31473085 139.50518357 6.32078545 136.27998893 6.34010315 133.05441475 C6.36005927 129.55000433 6.35519895 126.0464538 6.34429932 122.54202271 C6.36177637 121.02739053 6.36177637 121.02739053 6.37960649 119.48215973 C6.31824134 112.1624632 5.1368461 104.93001796 0.15446687 99.25767148 C-4.41332949 94.99593037 -8.73876743 93.43898906 -14.94921875 92.828125 C-26.73939148 93.34171207 -32.45421754 101.5816718 -39.13671875 110.203125 Z " fill="#555657" transform="translate(3033.13671875,135.796875)"/>
<path d="M0 0 C2.84998659 1.08496757 4.34247457 2.6892321 6.45703125 4.87890625 C7.24464844 5.69230469 8.03226563 6.50570312 8.84375 7.34375 C11.45206871 10.14691765 13.97231606 13.01193416 16.46484375 15.91796875 C18.63717213 18.37320501 20.96247124 20.64720961 23.30151367 22.94213867 C25.07821523 24.74896579 26.7390543 26.6100351 28.390625 28.53125 C32.05856628 32.74933404 35.86114376 36.82332972 39.70703125 40.87890625 C41.12265603 42.37735839 42.5380157 43.87606103 43.953125 45.375 C44.65679199 46.11991699 45.36045898 46.86483398 46.08544922 47.63232422 C49.15810207 50.89150757 52.21505847 54.16519237 55.26953125 57.44140625 C55.83728271 58.04968262 56.40503418 58.65795898 56.98999023 59.28466797 C59.90177026 62.40552647 62.80786814 65.53147878 65.70703125 68.6640625 C78.27650866 82.33960295 78.27650866 82.33960295 91.83984375 95.00390625 C98.0096167 100.35522505 103.63715816 106.26588577 109.3671875 112.078125 C113.17869868 115.92292449 116.96423951 119.73583392 121.08203125 123.25390625 C127.11330184 128.41921079 132.58080631 134.19746409 138.15380859 139.84619141 C144.94417907 146.76547189 144.94417907 146.76547189 152.11328125 153.28515625 C158.34213334 158.60683194 163.97493571 164.59276039 169.7265625 170.41894531 C175.05811161 175.81333526 180.386181 181.12772102 186.16015625 186.0546875 C191.25929454 190.58167838 195.93967367 195.57814174 200.72265625 200.43359375 C204.3669814 204.11145564 207.9877144 207.75017161 211.93359375 211.10546875 C218.14208371 216.42747749 223.77481576 222.38024128 229.51953125 228.19140625 C231.8578104 230.55624956 234.19937494 232.91776867 236.54296875 235.27734375 C237.34291763 236.08974014 237.34291763 236.08974014 238.1590271 236.91854858 C240.88467736 239.71854419 240.88467736 239.71854419 244.14453125 241.81640625 C244.14453125 242.47640625 244.14453125 243.13640625 244.14453125 243.81640625 C244.74287781 244.08910843 245.34122437 244.36181061 245.95770264 244.64277649 C248.08881121 245.78650235 249.44775864 246.88237519 251.13378906 248.59448242 C251.68826721 249.15233932 252.24274536 249.71019623 252.81402588 250.28495789 C253.4026239 250.88701553 253.99122192 251.48907318 254.59765625 252.109375 C255.52623444 253.04575554 255.52623444 253.04575554 256.47357178 254.00105286 C258.45204272 255.99730595 260.42371868 258.00009425 262.39453125 260.00390625 C264.97967225 262.62577707 267.56797841 265.24446094 270.16015625 267.859375 C270.78724487 268.49205292 271.4143335 269.12473083 272.0604248 269.77658081 C275.00155284 272.72738038 277.94631936 275.61153086 281.12890625 278.3046875 C288.60005285 284.62743165 295.28336091 291.90584811 302.16308594 298.85546875 C304.13394466 300.84456728 306.1079213 302.83053522 308.08203125 304.81640625 C308.96677124 305.71359375 308.96677124 305.71359375 309.86938477 306.62890625 C312.83284885 309.60941847 315.84973872 312.46400011 319.03515625 315.20703125 C323.55842216 319.11751669 327.75362435 323.31739196 331.95703125 327.56640625 C333.17676636 328.79182129 333.17676636 328.79182129 334.42114258 330.04199219 C337.86630465 333.50335667 341.30543415 336.97069216 344.74511719 340.4375 C347.27199633 342.98255813 349.8019444 345.52453756 352.33203125 348.06640625 C353.09684814 348.83952148 353.86166504 349.61263672 354.6496582 350.40917969 C358.03993939 353.81471063 361.44926803 357.13135313 365.09643555 360.26171875 C369.90014687 364.39909142 374.29294955 368.91464227 378.7265625 373.44140625 C380.56399991 375.30122912 382.40190506 377.16058997 384.24023438 379.01953125 C387.10222791 381.91719538 389.96056211 384.81831867 392.80981445 387.72851562 C395.58339525 390.56057958 398.37359717 393.37597532 401.1640625 396.19140625 C402.00089066 397.0520166 402.83771881 397.91262695 403.6999054 398.79931641 C410.96229368 406.0931887 420.64447139 415.07041663 431.58203125 415.12890625 C436.48914746 414.99056301 440.1200025 413.92127344 443.62109375 410.28125 C444.84587973 408.83408667 446.00162865 407.32907146 447.14453125 405.81640625 C448.54788949 410.02648096 447.19634072 412.20753194 445.50390625 416.18359375 C441.93175581 423.10206903 436.30014968 428.66059505 429.14453125 431.81640625 C422.47554069 433.91791705 416.66316062 433.93287247 409.71875 433.53710938 C408.62318283 433.48363594 407.52761566 433.43016251 406.39884949 433.37506866 C402.97979458 433.20326166 399.56226189 433.01268754 396.14453125 432.81640625 C395.11346252 432.75875092 394.0823938 432.70109558 393.02008057 432.64169312 C385.66334118 432.22585421 378.31021049 431.75924344 370.95703125 431.28515625 C368.54125356 431.13153718 366.12546124 430.97814795 363.70965576 430.82496643 C357.87948106 430.45452726 352.04949458 430.08123222 346.21959519 429.70648688 C341.46129647 429.40070565 336.70290608 429.09638615 331.94445801 428.79293823 C298.62880389 426.66808927 265.31552928 424.50742531 232.00390625 422.3203125 C231.22155672 422.26894685 230.43920719 422.21758121 229.6331501 422.16465902 C213.56470562 421.10952212 197.49644636 420.05160106 181.42852402 418.9885416 C176.44614 418.65890898 171.46372061 418.32981241 166.48129487 418.00081104 C161.9386123 417.70076049 157.39602452 417.39930148 152.85345459 417.09754944 C151.06769721 416.97967197 151.06769721 416.97967197 149.24586391 416.85941315 C146.96741215 416.70870642 144.68905942 416.55649313 142.41082096 416.40259552 C137.48372057 416.07474117 132.56182235 415.77783917 127.62712097 415.59300232 C126.79216976 415.55883933 125.95721855 415.52467634 125.09696579 415.48947811 C123.58976121 415.43130898 122.08203615 415.38471364 120.57403946 415.35316563 C116.29279577 415.18424847 113.699428 414.40763455 110.3515625 411.71875 C108.58422852 409.80102539 108.58422852 409.80102539 106.95703125 407.75390625 C106.34593506 407.06868896 105.73483887 406.38347168 105.10522461 405.67749023 C103.40591185 403.75752895 101.77184332 401.79734161 100.14453125 399.81640625 C98.83477846 398.33480647 97.52303103 396.85496006 96.20703125 395.37890625 C95.70300781 394.78207031 95.19898438 394.18523437 94.6796875 393.5703125 C92.91841637 391.55807143 91.04973286 389.69268639 89.14453125 387.81640625 C85.93018394 384.64524595 82.92702162 381.36057872 79.984375 377.9375 C77.94944306 375.59149567 75.86162158 373.29904175 73.76953125 371.00390625 C69.91552507 366.73465361 66.27074643 362.33176238 62.65625 357.859375 C60.28094235 354.98166947 57.84981518 352.16699543 55.39038086 349.36157227 C49.52220926 342.66785658 43.93192005 335.83341016 38.58642578 328.71337891 C36.97066322 326.58766352 35.32278742 324.4891518 33.671875 322.390625 C25.57070648 312.02659494 17.99741605 301.38417825 10.70703125 290.44140625 C10.29455139 289.82395538 9.88207153 289.20650452 9.45709229 288.57034302 C-13.11502286 254.70427992 -38.38459503 214.4984576 -38.16796875 172.50390625 C-38.1623291 171.32296387 -38.15668945 170.14202148 -38.15087891 168.92529297 C-37.9809607 156.18142732 -36.71404408 143.62650247 -35.12762451 130.99121094 C-34.84274069 128.71469599 -34.56392381 126.43748742 -34.28564453 124.16015625 C-30.16628756 90.65768259 -24.88562257 57.31220575 -19.36962891 24.014328 C-19.01683935 21.82008291 -18.68832759 19.62183762 -18.38037109 17.42085266 C-18.22358887 16.34514511 -18.06680664 15.26943756 -17.90527344 14.16113281 C-17.70789581 12.72172333 -17.70789581 12.72172333 -17.50653076 11.25323486 C-16.77577789 8.51813518 -16.13056653 7.60198521 -13.88671875 5.9296875 C-12.72140625 5.33542969 -11.55609375 4.74117188 -10.35546875 4.12890625 C-9.76121094 3.80986328 -9.16695312 3.49082031 -8.5546875 3.16210938 C-7.00883084 2.34032779 -5.43361529 1.57433189 -3.85546875 0.81640625 C-1.85546875 -0.18359375 -1.85546875 -0.18359375 0 0 Z " fill="#FDFDFD" transform="translate(179.85546875,113.18359375)"/>
<path d="M0 0 C0.68449219 0.48887695 1.36898437 0.97775391 2.07421875 1.48144531 C4.24695512 3.0368827 6.4069836 4.60830114 8.5625 6.1875 C9.21806885 6.6626001 9.8736377 7.1377002 10.54907227 7.62719727 C17.24469466 12.63660434 23.35527119 18.49554858 25 27 C26.16998205 37.35256845 25.02348826 45.37212102 19 54 C13.96720505 59.95118819 5.68649247 64.64518658 -2 66 C-17.55042613 67.05749832 -27.09545605 63.5266808 -39.90722656 54.77294922 C-73.12686236 32.11324297 -114.25748812 18.00859627 -154.66015625 17.796875 C-155.5592421 17.78981537 -156.45832794 17.78275574 -157.38465881 17.77548218 C-185.32857821 17.5304456 -185.32857821 17.5304456 -213 21 C-214.03108887 21.19867676 -215.06217773 21.39735352 -216.12451172 21.60205078 C-264.73501732 31.26911841 -309.16219194 54.47970229 -340 94 C-340.4321582 94.55042969 -340.86431641 95.10085938 -341.30957031 95.66796875 C-349.00216589 105.54022551 -355.26212259 115.88889093 -361 127 C-361.38397949 127.73138184 -361.76795898 128.46276367 -362.16357422 129.21630859 C-392.10495011 186.78802027 -393.98976903 256.81494043 -374.95751953 318.05761719 C-368.25398946 338.65704209 -358.74130365 358.46191131 -346 376 C-345.39720215 376.8360376 -345.39720215 376.8360376 -344.78222656 377.68896484 C-311.51355488 423.4367394 -261.88416196 448.60586095 -206.62207031 457.37744141 C-147.7008338 466.29889377 -86.5117176 454.00503861 -37.20385742 420.15405273 C-25.20015691 411.94914641 -14.17836342 406.91126906 0.6875 409.4609375 C10.7851086 412.14311478 18.83561424 418.08605185 24.21875 427.0234375 C28.20233063 434.90523632 29.18511481 444.23636838 26.84765625 452.78125 C22.42221377 464.36489669 13.88752431 471.06337434 3.8125 477.6875 C2.65899048 478.44897339 2.65899048 478.44897339 1.48217773 479.22583008 C-34.36367781 502.58043812 -74.56229858 518.70213431 -117 525 C-118.50385254 525.22429687 -118.50385254 525.22429687 -120.03808594 525.453125 C-198.64881998 536.57027849 -286.73582461 521.81558964 -351.08935547 473.47460938 C-356.22741764 469.50912311 -361.12611868 465.2826912 -366 461 C-366.67675781 460.43410156 -367.35351562 459.86820313 -368.05078125 459.28515625 C-379.06058558 450.01994618 -389.29754302 439.44562277 -398 428 C-398.40605469 427.47567383 -398.81210938 426.95134766 -399.23046875 426.41113281 C-438.75675122 375.22281656 -457.75241135 311.24364518 -459 247 C-459.03996094 245.7521875 -459.07992187 244.504375 -459.12109375 243.21875 C-460.50539836 167.00056664 -434.81423746 89.14229934 -381.61523438 33.67382812 C-381.08220703 33.12146484 -380.54917969 32.56910156 -380 32 C-379.43345703 31.41154297 -378.86691406 30.82308594 -378.28320312 30.21679688 C-370.91993483 22.60944234 -363.4308363 15.43496485 -355 9 C-354.21133545 8.38874268 -354.21133545 8.38874268 -353.40673828 7.76513672 C-272.83898779 -54.44185649 -157.46502054 -67.56661373 0 0 Z " fill="#555657" transform="translate(2615,178)"/>
<path d="M0 0 C67.54521368 -1.06654977 143.44361292 15.85739696 194.70654297 63.06201172 C200.86798861 69.14378349 204.14101322 75.59146815 204.76513672 84.31591797 C204.57666687 93.14887161 201.92685308 100.7568792 195.70654297 107.06201172 C187.43296506 114.86385054 177.85036713 117.73846775 166.60644531 117.52148438 C154.3300027 116.9261045 146.14260454 110.88083964 136.31982422 104.15966797 C99.83307508 79.37177239 55.91035106 68.57511802 12.20654297 68.74951172 C11.23477112 68.75166687 10.26299927 68.75382202 9.26177979 68.75604248 C-5.43261981 68.80830562 -19.83256758 69.2224741 -34.29345703 72.06201172 C-35.34049805 72.26600586 -36.38753906 72.47 -37.46630859 72.68017578 C-52.16494111 75.63711884 -66.34251164 79.56823199 -80.29345703 85.06201172 C-80.98552246 85.33094238 -81.67758789 85.59987305 -82.390625 85.87695312 C-100.25710772 92.92440771 -116.37948077 103.03448619 -131.29345703 115.06201172 C-131.90560059 115.55314453 -132.51774414 116.04427734 -133.1484375 116.55029297 C-151.16660782 131.1380346 -165.88769405 148.86170517 -177.29345703 169.06201172 C-177.67711426 169.73506348 -178.06077148 170.40811523 -178.45605469 171.1015625 C-210.09468847 227.16828134 -216.07001664 295.51559334 -199.48095703 357.31201172 C-187.63265455 399.5889092 -165.19697558 438.74053091 -130.29345703 466.06201172 C-129.46563721 466.71242432 -129.46563721 466.71242432 -128.62109375 467.37597656 C-91.7401361 496.11182809 -44.67106023 509.77909047 1.70654297 511.06201172 C2.49319336 511.08392578 3.27984375 511.10583984 4.09033203 511.12841797 C53.31885459 512.26840691 103.31766279 498.71711937 143.70654297 470.06201172 C155.14768152 462.15838398 165.2704396 458.05274026 179.37451172 460.53076172 C188.91859483 463.01666244 197.31747506 468.74106748 202.70654297 477.06201172 C207.32385497 486.95234868 208.25121143 496.33720674 204.72998047 506.69091797 C193.79055305 532.03531662 151.0010049 548.66132177 127.08544922 558.37841797 C108.03141123 565.89458203 88.53222381 571.18833218 68.39404297 574.87451172 C67.33540039 575.06948242 66.27675781 575.26445313 65.18603516 575.46533203 C47.65560967 578.4819485 30.09300619 579.44623908 12.33154297 579.37451172 C11.38320587 579.3726889 10.43486877 579.37086609 9.45779419 579.36898804 C-49.74619076 579.17896385 -111.89461259 566.28173426 -161.29345703 532.06201172 C-161.89641602 531.64999512 -162.499375 531.23797852 -163.12060547 530.81347656 C-176.08566875 521.9183633 -187.9029092 511.87966217 -199.29345703 501.06201172 C-200.53482422 499.88445312 -200.53482422 499.88445312 -201.80126953 498.68310547 C-206.9431417 493.67560278 -211.56092155 488.35774916 -215.9921875 482.71386719 C-216.90963578 481.54924148 -217.83378485 480.38987911 -218.76269531 479.234375 C-227.70513971 468.10023703 -235.27078733 456.48824928 -242.29345703 444.06201172 C-242.72754883 443.30758789 -243.16164063 442.55316406 -243.60888672 441.77587891 C-266.8066941 401.21091981 -279.28626188 351.45643324 -279.49658203 304.74560547 C-279.5071035 303.17588989 -279.5071035 303.17588989 -279.51783752 301.57446289 C-279.53524602 298.21610157 -279.54168975 294.85791651 -279.54345703 291.49951172 C-279.54413177 290.35273956 -279.54480652 289.20596741 -279.54550171 288.02444458 C-279.530022 271.4913871 -279.15366137 255.38331432 -276.29345703 239.06201172 C-276.12185059 238.01513184 -275.95024414 236.96825195 -275.7734375 235.88964844 C-273.12924294 219.9181462 -269.28217371 204.45795077 -264.29345703 189.06201172 C-264.00664063 188.16627441 -263.71982422 187.27053711 -263.42431641 186.34765625 C-247.7577846 138.24291611 -217.71138293 91.99852068 -177.29345703 61.06201172 C-176.72079102 60.61293457 -176.148125 60.16385742 -175.55810547 59.70117188 C-125.85805884 20.72915729 -62.84975374 1.18338306 0 0 Z " fill="#555657" transform="translate(1881.29345703125,126.93798828125)"/>
<path d="M0 0 C1.05011513 0.06388066 2.10023026 0.12776133 3.18216705 0.19357777 C6.53934706 0.40366157 9.89305861 0.64739391 13.24780273 0.89306641 C15.38809357 1.03328767 17.52851055 1.17159742 19.66905212 1.30793762 C26.48969207 1.75187469 33.30606043 2.24880813 40.12280273 2.74853516 C42.67326782 2.93283907 45.22375466 3.11684205 47.77426147 3.30056763 C53.8440322 3.73868171 59.91354617 4.18020209 65.98293984 4.62350535 C70.88827609 4.98168421 75.79373639 5.33812068 80.69927979 5.69345093 C81.40031118 5.74423284 82.10134257 5.79501476 82.82361734 5.84733552 C83.52548311 5.89817774 84.22734889 5.94901996 84.95048332 6.00140285 C122.21686684 8.70096824 159.47907645 11.45513351 196.73678589 14.27194214 C197.48352444 14.32839779 198.23026299 14.38485344 198.99962997 14.44301987 C200.47551481 14.55460729 201.95139832 14.66621231 203.42728043 14.77783585 C218.90711652 15.94812777 234.38942278 17.08314757 249.87280273 18.20556641 C250.99805359 18.28714996 252.12330444 18.36873352 253.28265381 18.45278931 C255.41263072 18.60709303 257.54262468 18.76116163 259.67263794 18.91496277 C261.62134201 19.05602602 263.56997483 19.19807805 265.51852417 19.34126282 C269.57398509 19.63779344 273.62820071 19.92205927 277.68823242 20.1484375 C278.953125 20.22271973 280.21801758 20.29700195 281.52124023 20.37353516 C283.10171143 20.45510864 283.10171143 20.45510864 284.71411133 20.53833008 C287.24780273 20.89306641 287.24780273 20.89306641 290.24780273 22.89306641 C289.22984619 23.34931396 288.21188965 23.80556152 287.16308594 24.27563477 C268.57158948 32.61140841 249.9970617 40.97927644 231.49780273 49.51806641 C218.80641514 55.3759804 206.06401395 61.10394092 193.27648926 66.74859619 C180.15527978 72.54603074 167.13690047 78.5509207 154.13513184 84.61077881 C141.49779261 90.49781703 128.8057026 96.2389622 116.04907227 101.86230469 C103.88112548 107.2304372 91.80205748 112.77465326 79.74780273 118.39306641 C66.96698584 124.35012565 54.1506795 130.20511769 41.24780273 135.89306641 C28.20023745 141.64517196 15.23733848 147.56251062 2.31030273 153.58056641 C-10.447582 159.51975449 -23.22635571 165.39370397 -36.08178711 171.11914062 C-45.35491198 175.25284898 -54.58748163 179.47060994 -63.81469727 183.70556641 C-75.63047019 189.12802429 -87.48492031 194.45319314 -99.37719727 199.70556641 C-112.50504591 205.50515869 -125.5513277 211.46618449 -138.56469727 217.51806641 C-140.29095398 218.31971284 -142.01727188 219.12122754 -143.74365234 219.92260742 C-153.63126364 224.51236908 -153.63126364 224.51236908 -163.51391602 229.11279297 C-167.18255201 230.82202488 -170.85645771 232.51937765 -174.53475952 234.20770264 C-175.87495899 234.82524573 -177.21324802 235.44695397 -178.54946899 236.07305908 C-180.36855417 236.92486651 -182.19496501 237.76097773 -184.02172852 238.59619141 C-185.03855713 239.06702148 -186.05538574 239.53785156 -187.10302734 240.02294922 C-190.0416004 240.98812057 -190.95250324 241.09172255 -193.75219727 239.89306641 C-195.76190723 238.78256739 -197.7377318 237.60999967 -199.68969727 236.40087891 C-200.25164795 236.05427216 -200.81359863 235.70766541 -201.39257812 235.35055542 C-202.57746717 234.61835043 -203.76078879 233.8836036 -204.94262695 233.14648438 C-206.74292507 232.02384839 -208.54784147 230.90897776 -210.35375977 229.79541016 C-219.89767919 223.88678833 -219.89767919 223.88678833 -223.75219727 220.89306641 C-222.10495388 216.61710523 -218.88601874 213.79230864 -215.67797852 210.65869141 C-215.07592087 210.06183533 -214.47386322 209.46497925 -213.8535614 208.85003662 C-211.92863812 206.94289076 -209.99718379 205.04254575 -208.06469727 203.14306641 C-205.53656635 200.65168622 -203.0116379 198.15712641 -200.49047852 195.65869141 C-199.88148712 195.05528931 -199.27249573 194.45188721 -198.64505005 193.8302002 C-195.11974016 190.31686896 -191.77621848 186.72138062 -188.55761719 182.92333984 C-183.70458934 177.46589839 -178.34551794 172.44040309 -173.1496582 167.31103516 C-167.78605791 162.00991703 -162.5063373 156.71200715 -157.60766602 150.97119141 C-152.90611146 145.7054503 -147.74622582 140.84025512 -142.72241211 135.88378906 C-135.81771107 129.10991957 -135.81771107 129.10991957 -129.31469727 121.95556641 C-123.80986397 115.51233416 -117.60209425 109.68971487 -111.5769043 103.73828125 C-106.06645894 98.28926063 -100.6205485 92.85626608 -95.59008789 86.95361328 C-90.89698437 81.69195099 -85.74005047 76.83416256 -80.72241211 71.88378906 C-73.80313162 65.09341858 -73.80313162 65.09341858 -67.28344727 57.92431641 C-61.96177158 51.69546431 -55.97584312 46.06266195 -50.1496582 40.31103516 C-43.28604824 33.52738141 -36.66866323 26.67099888 -30.5456543 19.20117188 C-28.46041989 16.69714214 -26.33035408 14.25031041 -24.14306641 11.83520508 C-22.8263023 10.34371139 -21.58236954 8.78894096 -20.34008789 7.23486328 C-13.81187067 0.14477178 -9.28582825 -0.73432075 0 0 Z " fill="#FDFDFD" transform="translate(299.752197265625,534.10693359375)"/>
<path d="M0 0 C2.4296875 1.54296875 2.4296875 1.54296875 4.125 2.8125 C4.125 3.1425 4.125 3.4725 4.125 3.8125 C3.0628125 3.81507813 2.000625 3.81765625 0.90625 3.8203125 C-9.56743458 3.90173546 -9.56743458 3.90173546 -18.34375 9.1015625 C-19.10171875 9.94847656 -19.10171875 9.94847656 -19.875 10.8125 C-20.57109375 11.53566406 -20.57109375 11.53566406 -21.28125 12.2734375 C-29.39271348 22.0170857 -31.30377636 37.1387446 -34.21606445 49.07983398 C-35.97684721 56.28945462 -37.84636454 63.44187673 -39.9375 70.5625 C-42.39539968 78.94765361 -44.54440372 87.38619586 -46.62524414 95.87207031 C-48.45161454 103.26319089 -50.48965144 110.5720104 -52.625 117.87890625 C-54.53835492 124.48595998 -56.23694458 131.13230526 -57.875 137.8125 C-59.93889841 146.2293357 -62.19428025 154.56128711 -64.625 162.87890625 C-66.53835647 169.4859653 -68.23683002 176.13232979 -69.875 182.8125 C-71.96572163 191.33306094 -74.21809635 199.78323747 -76.6953125 208.19970703 C-77.94943591 212.47997769 -79.12542329 216.75669269 -80.15234375 221.09765625 C-80.35915771 221.95319092 -80.56597168 222.80872559 -80.77905273 223.69018555 C-81.16157171 225.29312967 -81.52838943 226.89994863 -81.87524414 228.51098633 C-83.40963139 234.86793507 -86.55977688 239.75168563 -92.1875 243.25 C-96.78000957 244.21122293 -101.40389152 245.14895264 -105.71362305 242.81811523 C-111.76376285 238.15954866 -117.0454926 232.83067221 -122.375 227.375 C-129.32392585 220.21656027 -129.32392585 220.21656027 -136.6875 213.49609375 C-143.58049973 207.59888506 -149.80215398 200.93743702 -156.17529297 194.49169922 C-164.72610941 185.84554035 -164.72610941 185.84554035 -173.75585938 177.70898438 C-179.63346816 172.4489308 -185.06013056 166.67265619 -190.60253906 161.06445312 C-198.01391286 153.4824862 -198.01391286 153.4824862 -205.84375 146.34375 C-212.69441656 140.51278433 -218.85528405 133.88370173 -225.17529297 127.49169922 C-232.78709134 119.69403241 -232.78709134 119.69403241 -240.83203125 112.35546875 C-247.28974787 106.86683616 -253.10689855 100.64502779 -259.0625 94.625 C-261.5530477 92.10773719 -264.04697755 89.59389535 -266.54296875 87.08203125 C-267.10453171 86.51216995 -267.66609467 85.94230865 -268.24467468 85.35517883 C-270.67599269 82.9088319 -273.04729643 80.67762331 -275.77075195 78.5456543 C-276.46515381 77.97371338 -277.15955566 77.40177246 -277.875 76.8125 C-277.875 76.1525 -277.875 75.4925 -277.875 74.8125 C-276.99679344 74.52087479 -276.99679344 74.52087479 -276.10084534 74.22335815 C-269.75184866 72.11466473 -263.4036847 70.00347686 -257.0559082 67.89111328 C-254.71723501 67.11318609 -252.37838027 66.33580437 -250.03930664 65.55908203 C-234.86069889 60.51826475 -219.7100851 55.40161596 -204.578125 50.22265625 C-189.39255249 45.02556448 -174.19289853 39.87185753 -158.98046875 34.75390625 C-157.96381197 34.4118364 -156.94715519 34.06976654 -155.89969063 33.71733093 C-148.62105124 31.26862524 -141.34183699 28.82163098 -134.0625 26.375 C-126.7921524 23.93135263 -119.52198285 21.48717799 -112.25232315 19.04148483 C-110.20498419 18.35275884 -108.15758833 17.66420194 -106.11013412 16.97581863 C-94.82499112 13.18098168 -83.54713148 9.36614571 -72.28369141 5.50732422 C-71.26763604 5.15951747 -70.25158068 4.81171072 -69.20473576 4.45336437 C-64.3748621 2.79967681 -59.54623756 1.14250641 -54.71977234 -0.52110291 C-52.99722169 -1.11192135 -51.27463365 -1.70263081 -49.55200195 -2.29321289 C-48.78715548 -2.55836512 -48.022309 -2.82351734 -47.23428535 -3.09670448 C-30.77996429 -8.72228748 -15.47748983 -9.05946161 0 0 Z " fill="#FEFEFE" transform="translate(710.875,278.1875)"/>
<path d="M0 0 C8.64059522 3.60936256 17.4518743 6.76219725 26.24743652 9.97027588 C30.57192797 11.54772386 34.8941637 13.1313102 39.21655273 14.71450806 C41.45879735 15.53573975 43.7011485 16.35668065 45.94360352 17.17733765 C56.58989741 21.07400342 67.22851541 24.99129406 77.86309814 28.9197998 C80.67839405 29.95954948 83.49421357 30.9978714 86.31005859 32.03613281 C95.48425269 35.42254045 104.64652184 38.84008731 113.79296875 42.30078125 C114.7043158 42.64360138 115.61566284 42.98642151 116.55462646 43.33963013 C117.38899231 43.65664886 118.22335815 43.9736676 119.08300781 44.30029297 C119.8223053 44.58009003 120.56160278 44.85988708 121.32330322 45.14816284 C123.02734375 45.87109375 123.02734375 45.87109375 124.02734375 46.87109375 C124.09978428 48.89073574 124.11111563 50.91276499 124.08984375 52.93359375 C124.08082031 54.03832031 124.07179688 55.14304687 124.0625 56.28125 C124.04509766 57.56322266 124.04509766 57.56322266 124.02734375 58.87109375 C123.42125778 58.99922455 122.81517181 59.12735535 122.1907196 59.2593689 C92.86257031 65.46363355 63.57685355 71.78239046 34.40032959 78.66731262 C20.89070937 81.85228272 7.36692008 84.97666181 -6.1546936 88.11022949 C-9.93671433 88.98676715 -13.71850752 89.86428167 -17.50021839 90.74215508 C-25.08713568 92.50334437 -32.67491403 94.26075488 -40.26373291 96.01373291 C-42.67539783 96.57121735 -45.0868288 97.12971512 -47.49798584 97.68939209 C-50.61773612 98.41324731 -53.73838954 99.13305483 -56.859375 99.8515625 C-57.75630569 100.06057693 -58.65323639 100.26959137 -59.5773468 100.48493958 C-60.79335823 100.76346016 -60.79335823 100.76346016 -62.03393555 101.04760742 C-62.72867477 101.20815109 -63.423414 101.36869476 -64.13920593 101.53410339 C-65.97265625 101.87109375 -65.97265625 101.87109375 -68.97265625 101.87109375 C-67.43330127 91.77146841 -64.74578483 81.99341321 -62.10546875 72.140625 C-61.62453124 70.33708687 -61.1437292 68.53351261 -60.66305542 66.72990417 C-59.65919393 62.96793622 -58.65174827 59.20694925 -57.64208984 55.4465332 C-56.3533092 50.64427647 -55.076584 45.83890454 -53.80288887 41.03262806 C-52.81536612 37.31370495 -51.81993002 33.59693361 -50.82229233 29.88071251 C-50.34829208 28.1101553 -49.87706557 26.33885295 -49.40875626 24.566782 C-48.75227487 22.08624993 -48.08475976 19.60893311 -47.41455078 17.13208008 C-47.22635773 16.41136322 -47.03816467 15.69064636 -46.8442688 14.9480896 C-45.03047064 8.32884535 -42.7919005 1.43408647 -36.91015625 -2.56640625 C-35.90275391 -3.27603516 -35.90275391 -3.27603516 -34.875 -4 C-24.02689103 -10.43758418 -10.39790013 -4.47498273 0 0 Z " fill="#FDFDFD" transform="translate(733.97265625,294.12890625)"/>
<path d="M0 0 C0 0.66 0 1.32 0 2 C-0.5762915 2.29543701 -1.15258301 2.59087402 -1.74633789 2.89526367 C-13.85699508 9.11954208 -25.82707464 15.52779485 -37.65063477 22.28198242 C-43.5435819 25.63897872 -49.4796834 28.87764605 -55.5 32 C-62.59186134 35.67854516 -69.55964748 39.54326463 -76.5 43.5 C-84.19189897 47.88519637 -91.93770494 52.11479593 -99.796875 56.19140625 C-106.11301458 59.48724418 -112.31118359 62.97171974 -118.5 66.5 C-126.19189897 70.88519637 -133.93770494 75.11479593 -141.796875 79.19140625 C-148.11301458 82.48724418 -154.31118359 85.97171974 -160.5 89.5 C-168.19189897 93.88519637 -175.93770494 98.11479593 -183.796875 102.19140625 C-190.11301458 105.48724418 -196.31118359 108.97171974 -202.5 112.5 C-210.19189897 116.88519637 -217.93770494 121.11479593 -225.796875 125.19140625 C-232.11301458 128.48724418 -238.31118359 131.97171974 -244.5 135.5 C-252.19189897 139.88519637 -259.93770494 144.11479593 -267.796875 148.19140625 C-274.11301458 151.48724418 -280.31118359 154.97171974 -286.5 158.5 C-294.19189897 162.88519637 -301.93770494 167.11479593 -309.796875 171.19140625 C-316.11301458 174.48724418 -322.31118359 177.97171974 -328.5 181.5 C-335.4403621 185.45674083 -342.40824836 189.32123383 -349.5 193 C-356.35989263 196.56018831 -363.10172396 200.29143217 -369.8125 204.125 C-380.24600306 210.0831619 -390.8176402 215.75654776 -401.4465332 221.35595703 C-402.65582118 221.99500468 -403.86505072 222.63416293 -405.07421875 223.2734375 C-406.23356934 223.88541992 -407.39291992 224.49740234 -408.58740234 225.12792969 C-412.9619922 227.52772615 -417.1867584 230.14689342 -421.38989258 232.83447266 C-424.57283458 234.25579574 -425.73873187 234.14037189 -429 233 C-430.97742346 232.01310147 -432.91691161 230.94843247 -434.82421875 229.83203125 C-435.93603516 229.18556641 -437.04785156 228.53910156 -438.19335938 227.87304688 C-439.3581425 227.18631593 -440.52285572 226.49946639 -441.6875 225.8125 C-442.82123047 225.15185547 -443.95496094 224.49121094 -445.12304688 223.81054688 C-451.77911485 219.9243239 -458.40132435 215.98281559 -465 212 C-462.28771187 208.69767465 -458.68401611 207.26181592 -454.87890625 205.55078125 C-454.16051071 205.22153152 -453.44211517 204.8922818 -452.70195007 204.55305481 C-450.32514338 203.46613116 -447.94394299 202.38922316 -445.5625 201.3125 C-443.88425159 200.54777686 -442.20619456 199.78263359 -440.52832031 199.01708984 C-428.73439676 193.64662375 -416.89346497 188.383404 -405.03884888 183.14859009 C-391.91487727 177.35017722 -378.89388996 171.34410725 -365.88934326 165.28329468 C-353.20584613 159.37514964 -340.46836468 153.61000996 -327.66650391 147.96337891 C-315.88636543 142.7644979 -304.17955048 137.42085554 -292.5 132 C-280.09018012 126.24020291 -267.6427462 120.5838141 -255.125 115.0625 C-241.30143472 108.96485662 -227.58087709 102.6646489 -213.88677979 96.28201294 C-201.24962286 90.39506974 -188.55771189 84.65402134 -175.80126953 79.03076172 C-163.63332275 73.6626292 -151.55425474 68.11841315 -139.5 62.5 C-125.99263971 56.2043034 -112.43753537 50.04186269 -98.80126953 44.03076172 C-85.76620286 38.28008196 -72.83619229 32.31862665 -59.92349243 26.29885864 C-45.70628606 19.67431205 -31.41726226 13.22797545 -17.06640625 6.8984375 C-16.34777908 6.58133316 -15.62915192 6.26422882 -14.88874817 5.93751526 C-13.55810014 5.35088379 -12.22698827 4.76530275 -10.89530945 4.18101501 C-8.46416238 3.11079386 -6.05892675 2.03044788 -3.69848633 0.81079102 C-2 0 -2 0 0 0 Z " fill="#E4A247" transform="translate(574,564)"/>
<path d="M0 0 C3.39192363 0.59283621 5.2107757 1.76743189 7.75 4.0625 C8.36359375 4.61035156 8.9771875 5.15820312 9.609375 5.72265625 C10.06828125 6.14417969 10.5271875 6.56570313 11 7 C9.97953467 10.061396 9.18909411 11.82171126 6.8125 14.0625 C6.214375 14.701875 5.61625 15.34125 5 16 C5.4094179 18.90807126 6.53880276 21.19539825 7.9375 23.75 C13.26263984 34.36155139 13.82957294 47.15748551 10.375 58.5 C7.29270845 66.50961678 2.1324398 72.15958114 -4 78 C-3.33613281 78.556875 -2.67226562 79.11375 -1.98828125 79.6875 C4.23974588 85.06997017 10.5181944 90.53046405 12 99 C12.75073453 110.83945278 12.48804316 120.49174327 5 130.25 C-2.13148245 137.82624157 -13.01951955 141.83747209 -23.296875 142.30078125 C-37.17986508 142.48436563 -48.8259098 141.04052605 -60 132 C-68.02998346 123.80613933 -69.36849904 115.11441685 -70 104 C-65.05 104 -60.1 104 -55 104 C-54.938125 105.32 -54.87625 106.64 -54.8125 108 C-54.14245295 113.82849146 -52.00817487 118.58629779 -47.359375 122.31640625 C-38.71338667 127.5935748 -28.99317673 128.15421363 -19.18359375 126.53515625 C-13.47424369 125.06205677 -8.76322689 122.6398877 -5 118 C-2.05738683 112.11477366 -1.87727582 105.16688908 -3.58203125 98.83984375 C-6.13337582 93.53910504 -10.74868938 91.05521248 -16 89 C-20.80765223 87.69495868 -25.66232313 87.12870621 -30.61328125 86.65234375 C-41.91516297 85.46327959 -51.73562775 82.52099907 -59.54296875 73.83984375 C-68.64306822 62.34883343 -70.36018822 50.3333042 -69 36 C-67.02850055 24.78122934 -61.69360489 16.41880126 -52.890625 9.28125 C-43.30703181 2.78658354 -32.29240579 1.8648274 -21 3 C-17.6519129 3.82977483 -14.55775396 4.8529198 -11.35546875 6.125 C-8.95008447 7.17411278 -8.95008447 7.17411278 -6 7 C-4.32154581 5.46646436 -4.32154581 5.46646436 -2.8125 3.5 C-2.28269531 2.8503125 -1.75289062 2.200625 -1.20703125 1.53125 C-0.80871094 1.0259375 -0.41039063 0.520625 0 0 Z M-50 26 C-55.20085358 34.06211345 -56.13874627 43.00809789 -54.609375 52.3984375 C-52.63573813 59.60980298 -48.01011684 65.22720546 -41.8984375 69.453125 C-35.12507049 72.95064542 -27.56474239 73.37008141 -20.29296875 71.1875 C-13.07604845 67.99476107 -7.49143525 62.78993107 -3.83984375 55.76953125 C-0.57736215 47.1960331 -1.27475426 38.95613757 -4.68359375 30.546875 C-8.15345547 23.83367072 -13.26736252 20.14060606 -20.32421875 17.65625 C-31.23943163 14.97923429 -42.51542078 17.32955238 -50 26 Z " fill="#555657" transform="translate(2733,830)"/>
<path d="M0 0 C5.38896208 1.42648996 7.6475415 4.78993584 11 9 C7.535 12.96 7.535 12.96 4 17 C4.40992188 17.76183594 4.81984375 18.52367187 5.2421875 19.30859375 C11.9088044 32.08361801 14.39689067 44.20354146 10.0390625 58.3359375 C6.95131623 66.25264035 2.30143333 72.36972525 -4 78 C-3.25234375 78.6290625 -2.5046875 79.258125 -1.734375 79.90625 C5.01481169 85.77203529 10.23430707 90.86655202 12 100 C12.72927146 112.04700356 12.02045403 121.39559067 4.0703125 130.92578125 C-4.92273922 139.93580099 -16.64135522 142.25242162 -28.9375 142.4375 C-40.38850919 142.36096062 -51.21830918 139.71724345 -60 132 C-67.66220312 123.73155663 -70.18778435 115.07927642 -70 104 C-65.38 104 -60.76 104 -56 104 C-55.62875 105.835625 -55.2575 107.67125 -54.875 109.5625 C-53.42646767 115.30247858 -51.67898726 119.280805 -47 123 C-38.82169491 127.85643282 -27.97166733 128.44427543 -18.8828125 126.24609375 C-12.48645882 124.03597154 -7.68140482 121.89897382 -4.1875 115.875 C-2.05665928 110.2130518 -2.19759183 104.36264628 -4.125 98.6875 C-8.28140388 92.72998777 -13.10933222 90.00664391 -20 88 C-22.92809085 87.50927888 -25.85315231 87.27989284 -28.8125 87.0625 C-41.26914704 85.90475254 -51.35269098 82.32202101 -60.2578125 73.19921875 C-69.42926621 61.62180073 -70.04049622 49.11899509 -69 35 C-66.8762904 23.49556173 -60.43548247 14.74696931 -51 8 C-40.70708456 2.40418106 -28.74848632 1.02343007 -17.35546875 3.9296875 C-15.35772491 4.6440472 -13.37483626 5.40292473 -11.41796875 6.22265625 C-8.70674322 7.09427803 -7.58851297 7.138289 -5 6 C-3.47162557 4.62182123 -3.47162557 4.62182123 -2.25 2.9375 C-1.5075 1.968125 -0.765 0.99875 0 0 Z M-50 26 C-55.02716216 34.06790766 -55.73433047 41.58447502 -55 51 C-53.18228951 58.15782368 -50.04278132 63.6848403 -44.125 68.1875 C-37.2550878 72.17204908 -30.85206276 72.94066326 -23 72 C-14.19499472 69.31478562 -8.69708686 63.58504767 -4.125 55.8125 C-0.68505941 47.21264852 -1.47305679 38.46703876 -5 30 C-8.86855192 23.90494338 -13.49169792 19.88218536 -20.359375 17.5859375 C-31.32887471 15.15187691 -42.48225149 17.25207446 -50 26 Z " fill="#555657" transform="translate(1778,830)"/>
<path d="M0 0 C9.22988106 7.14771934 14.71273305 16.59821979 16.9453125 27.984375 C18.42900129 43.06854437 16.0067067 56.33008846 6.6328125 68.484375 C-0.96132293 76.87686826 -11.5901663 80.55830979 -22.5546875 81.609375 C-33.71954805 82.16102225 -42.34738671 80.11924409 -51.6796875 73.796875 C-52.9996875 72.476875 -54.3196875 71.156875 -55.6796875 69.796875 C-56.0096875 83.986875 -56.3396875 98.176875 -56.6796875 112.796875 C-61.2996875 112.796875 -65.9196875 112.796875 -70.6796875 112.796875 C-70.6796875 73.526875 -70.6796875 34.256875 -70.6796875 -6.203125 C-65.7296875 -6.203125 -60.7796875 -6.203125 -55.6796875 -6.203125 C-55.3496875 -2.903125 -55.0196875 0.396875 -54.6796875 3.796875 C-53.5659375 2.889375 -52.4521875 1.981875 -51.3046875 1.046875 C-36.32538347 -10.20755769 -15.57697795 -10.11752266 0 0 Z M-50.3046875 17.921875 C-55.3050336 25.33563735 -56.76000375 34.00702915 -55.6796875 42.796875 C-53.92540426 50.44053769 -50.74911122 56.72752678 -44.6796875 61.796875 C-37.04796409 66.5786267 -29.26766898 69.21904243 -20.21875 67.265625 C-11.94677367 64.98027418 -5.38866405 61.13074324 -0.6796875 53.796875 C3.71161034 44.66756361 4.10078078 33.84916278 1.25390625 24.171875 C-2.52048711 15.94431454 -7.62089632 11.1956478 -15.9921875 7.921875 C-28.6348229 4.30039968 -41.99600337 7.48714523 -50.3046875 17.921875 Z " fill="#555657" transform="translate(2081.6796875,840.203125)"/>
<path d="M0 0 C8.97953496 6.59921947 13.87944028 15.27220142 16.0625 26.1875 C16.0625 32.1275 16.0625 38.0675 16.0625 44.1875 C-7.3675 44.1875 -30.7975 44.1875 -54.9375 44.1875 C-50.92247236 54.2250691 -48.43402682 60.04251774 -38.8671875 64.4609375 C-30.46425776 67.62479364 -20.64753293 67.12232397 -12.2265625 64.2421875 C-7.04730626 61.85584077 -2.88592358 58.24459579 1.0625 54.1875 C4.05470268 55.55120299 6.35276529 57.13658083 8.8125 59.3125 C9.42609375 59.85132813 10.0396875 60.39015625 10.671875 60.9453125 C11.13078125 61.35523438 11.5896875 61.76515625 12.0625 62.1875 C7.68235627 71.22154644 -0.88278909 75.82504129 -9.9375 79.1875 C-21.92176601 83.27304523 -36.54276912 82.75518337 -47.9375 77.1875 C-59.13588071 71.22678712 -64.83913989 63.04226065 -68.9375 51.1875 C-72.51520093 38.68952596 -70.42567044 24.36930541 -64.375 13.125 C-57.63538457 2.59331594 -48.73404758 -2.61573184 -37.08203125 -6.41796875 C-24.37868418 -8.75501439 -10.99571826 -6.82429769 0 0 Z M-42.9375 11.1875 C-43.57042969 11.6 -44.20335937 12.0125 -44.85546875 12.4375 C-49.92415095 16.24171351 -52.81571112 21.26213565 -54.9375 27.1875 C-54.9375 28.5075 -54.9375 29.8275 -54.9375 31.1875 C-36.1275 31.1875 -17.3175 31.1875 2.0625 31.1875 C0.92860538 22.11634302 -0.74161069 17.44268466 -7.875 11.8125 C-17.38657926 4.82041504 -33.14665031 4.7008087 -42.9375 11.1875 Z " fill="#555657" transform="translate(1228.9375,839.8125)"/>
<path d="M0 0 C0.495 0.495 0.495 0.495 1 1 C1.33 -1.97 1.66 -4.94 2 -8 C6.95 -8 11.9 -8 17 -8 C17 20.38 17 48.76 17 78 C12.05 78 7.1 78 2 78 C1.505 73.545 1.505 73.545 1 69 C-0.11375 69.9075 -1.2275 70.815 -2.375 71.75 C-13.19386947 79.64889778 -23.93345896 80.25672185 -37 79 C-47.3672289 77.06671722 -56.6761955 70.58485721 -62.9375 62.1875 C-70.0265633 51.15440148 -72.50803202 38.86878425 -70.25 26 C-67.70979417 14.60435442 -61.64642703 4.72962202 -52 -2 C-35.08705736 -12.14214667 -16.19109941 -11.33716395 0 0 Z M-49 14 C-55.68719554 23.35333233 -57.02841526 31.74488552 -56 43 C-54.27140543 50.39338642 -49.24689607 56.92588695 -43.1328125 61.3515625 C-35.24818593 66.05526676 -25.09022995 66.52038551 -16.26171875 64.31640625 C-14.00678444 63.37782392 -12.04627945 62.33091346 -10 61 C-9.36578125 60.5875 -8.7315625 60.175 -8.078125 59.75 C-2.1004694 55.25398553 1.59370576 48.31557102 3 41 C3.96944976 31.19425402 2.07359716 22.4355255 -4.125 14.625 C-10.2459593 8.20063108 -17.98124659 5.34025447 -26.6875 4.75 C-35.18965047 4.91011583 -43.04857016 7.85741074 -49 14 Z " fill="#555657" transform="translate(1916,842)"/>
<path d="M0 0 C1.7421875 1.40234375 1.7421875 1.40234375 3.7421875 3.40234375 C4.0721875 0.10234375 4.4021875 -3.19765625 4.7421875 -6.59765625 C9.3621875 -6.59765625 13.9821875 -6.59765625 18.7421875 -6.59765625 C18.7421875 21.78234375 18.7421875 50.16234375 18.7421875 79.40234375 C14.1221875 79.40234375 9.5021875 79.40234375 4.7421875 79.40234375 C4.2471875 74.94734375 4.2471875 74.94734375 3.7421875 70.40234375 C3.12472656 70.87285156 2.50726562 71.34335937 1.87109375 71.828125 C1.02417969 72.45074219 0.17726563 73.07335937 -0.6953125 73.71484375 C-1.51902344 74.32972656 -2.34273437 74.94460938 -3.19140625 75.578125 C-10.02860464 79.64560481 -16.68479632 80.94281111 -24.5703125 80.83984375 C-25.81143799 80.82739624 -25.81143799 80.82739624 -27.07763672 80.81469727 C-39.6092227 80.47141635 -48.38541147 76.2065662 -57.2265625 67.453125 C-66.8560355 57.06879924 -68.88856855 45.621261 -68.5625 31.8828125 C-67.968602 20.20854485 -62.65214049 10.69009961 -54.3828125 2.55859375 C-39.03112498 -9.97861772 -16.17290704 -11.64093858 0 0 Z M-48.2578125 17.40234375 C-53.77841607 25.55246174 -55.09764407 32.6082516 -54.2578125 42.40234375 C-52.31434645 50.88696123 -48.89097962 57.17989366 -41.73046875 62.16015625 C-32.93376987 67.23744553 -24.19915074 67.98496887 -14.328125 65.734375 C-6.71002677 63.08309157 -1.55317375 58.28333131 2.1171875 51.15234375 C5.657529 43.45594918 5.95880526 34.67898879 4.05859375 26.4375 C0.72240716 17.45332947 -4.21049829 12.44229461 -12.79296875 8.34765625 C-25.5478856 3.45591318 -39.35780259 7.06945243 -48.2578125 17.40234375 Z " fill="#555657" transform="translate(2366.2578125,840.59765625)"/>
<path d="M0 0 C0.495 0.495 0.495 0.495 1 1 C1.33 -1.97 1.66 -4.94 2 -8 C6.62 -8 11.24 -8 16 -8 C16 20.38 16 48.76 16 78 C11.38 78 6.76 78 2 78 C1.505 73.545 1.505 73.545 1 69 C-0.6396875 70.36125 -0.6396875 70.36125 -2.3125 71.75 C-12.89020645 79.4996391 -24.27030385 80.33544313 -37 79 C-48.04068284 76.70950869 -57.49312761 70.13558393 -64 61 C-71.23632504 49.11860689 -72.82988555 36.41546426 -69.875 22.8125 C-66.87234591 12.21243277 -60.59095051 3.04628613 -51.13671875 -2.7578125 C-33.98699921 -11.77939305 -16.08770548 -11.26476652 0 0 Z M-50.5 15.55859375 C-55.68391104 21.99219763 -57.35497916 29.93974168 -57 38.0625 C-55.96590533 46.55527751 -52.34822691 53.75780583 -45.9921875 59.52734375 C-38.13196009 65.33774715 -29.53182766 66.08216851 -20 65 C-12.97772151 63.23499183 -6.74585201 60.06141342 -2.59765625 53.92578125 C2.73121346 44.82808774 4.53231316 36.18938272 1.875 25.9375 C-0.44498777 18.90093333 -4.79075699 13.08901369 -11 9 C-25.17184424 2.16714652 -39.47657282 4.10456395 -50.5 15.55859375 Z " fill="#555657" transform="translate(2188,842)"/>
<path d="M0 0 C0.33 -2.97 0.66 -5.94 1 -9 C5.62 -9 10.24 -9 15 -9 C15 19.38 15 47.76 15 77 C10.38 77 5.76 77 1 77 C0.505 72.545 0.505 72.545 0 68 C-1.6396875 69.36125 -1.6396875 69.36125 -3.3125 70.75 C-13.89020645 78.4996391 -25.27030385 79.33544313 -38 78 C-49.04068284 75.70950869 -58.49312761 69.13558393 -65 60 C-72.23632504 48.11860689 -73.82988555 35.41546426 -70.875 21.8125 C-67.87234591 11.21243277 -61.59095051 2.04628613 -52.13671875 -3.7578125 C-34.15855744 -13.21519342 -16.53398274 -11.87973169 0 0 Z M-51.5 14.5234375 C-56.73680353 20.91358466 -58.38998354 29.52710653 -58 37.625 C-56.88946153 45.82408189 -53.12337411 52.96191041 -46.9921875 58.52734375 C-39.13196009 64.33774715 -30.53182766 65.08216851 -21 64 C-13.97772151 62.23499183 -7.74585201 59.06141342 -3.59765625 52.92578125 C1.73121346 43.82808774 3.53231316 35.18938272 0.875 24.9375 C-1.44498777 17.90093333 -5.79075699 12.08901369 -12 8 C-26.25750499 1.12584581 -40.34108814 3.19016764 -51.5 14.5234375 Z " fill="#555657" transform="translate(3165,843)"/>
<path d="M0 0 C9.60715573 7.48915166 14.53684938 17.25930111 16.9375 29.0625 C18.01177303 43.29661771 15.37978054 56.23772941 6.3125 67.4375 C-0.99483334 75.303201 -11.14005263 80.16180396 -21.88671875 80.578125 C-35.7950322 80.81574541 -47.44839146 79.16227347 -58.078125 69.265625 C-68.06724187 58.53657355 -70.8306485 46.81031719 -70.8125 32.375 C-70.21951081 22.03063299 -65.74384079 11.56277645 -58.62890625 3.96484375 C-41.99043047 -10.59829527 -18.42750358 -12.33494142 0 0 Z M-51.1875 18.0546875 C-56.43482796 25.54726637 -57.62745942 34.5585377 -56.1875 43.5 C-54.11994917 52.19187486 -49.02493736 58.25998814 -41.8125 63.375 C-34.55009999 67.81750933 -25.04675439 67.51819567 -16.96875 65.75390625 C-9.029553 62.99724062 -3.1281785 57.568857 0.625 50.0625 C4.19866987 40.74543212 3.758291 31.63835637 0.1875 22.375 C-4.09364221 14.76967679 -10.44288199 9.07980914 -18.8125 6.375 C-32.44103992 4.70790032 -42.32581267 7.2277066 -51.1875 18.0546875 Z " fill="#555657" transform="translate(1673.8125,840.625)"/>
<path d="M0 0 C10.08635122 7.31397258 15.89488341 17.44952854 17.90625 29.73046875 C19.37819204 42.91661615 17.30665614 55.49810162 9.1875 66.25 C2.29791105 74.66566994 -6.1112833 79.30432424 -16.8125 81.25 C-19.77752022 81.53060128 -22.71046687 81.58482137 -25.6875 81.5625 C-26.47833984 81.55686035 -27.26917969 81.5512207 -28.08398438 81.54541016 C-39.26126326 81.31350688 -48.64066235 77.79492595 -57.04296875 70.24609375 C-67.69046617 59.07920621 -69.30424177 47.25798429 -69.08203125 32.5390625 C-68.67941112 21.27759909 -64.37391669 12.54401069 -56.8125 4.25 C-41.1504903 -9.9354566 -17.70741907 -10.87401909 0 0 Z M-47.6875 16 C-54.88445191 25.18759819 -55.92392015 33.86080792 -54.8125 45.25 C-53.22408454 52.4871592 -49.70781248 57.78097279 -43.8125 62.25 C-35.11094179 67.49652775 -25.89027597 68.98410224 -15.87890625 66.53125 C-6.30300631 62.91660284 -2.41324204 58.24470278 1.98828125 49.1875 C5.09656283 41.57372882 4.8343595 33.21116424 2.25 25.42578125 C-1.40601434 17.57256624 -6.83216544 11.14315402 -15.03125 7.9140625 C-27.23941268 4.9991922 -38.83969859 6.68652484 -47.6875 16 Z " fill="#555657" transform="translate(1527.8125,839.75)"/>
<path d="M0 0 C0.79535156 0.00563965 1.59070312 0.0112793 2.41015625 0.01708984 C13.60976743 0.24812757 22.99645838 3.75032075 31.41796875 11.31640625 C41.20034372 21.57597024 44.70892734 34.08031419 44.43359375 47.9765625 C43.50220017 60.60211987 38.58563436 70.85955735 29.39453125 79.55859375 C21.01798969 86.21534979 11.39925142 88.69844209 0.875 88.625 C0.03267822 88.61936035 -0.80964355 88.6137207 -1.67749023 88.60791016 C-13.0512036 88.38582315 -22.47293474 85.00811642 -31.04296875 77.30859375 C-41.68260356 66.14995236 -43.306233 54.08596645 -43.08984375 39.35546875 C-42.72001145 29.45463487 -39.39420536 21.63960332 -32.8125 14.3125 C-32.02552734 13.38824219 -32.02552734 13.38824219 -31.22265625 12.4453125 C-23.05799486 3.49300143 -11.88140511 -0.08810364 0 0 Z M-22.625 24.0625 C-28.69525254 33.08116091 -29.96610214 41.49004697 -28.8125 52.3125 C-26.99640861 59.68432658 -22.11313345 66.57717063 -15.6875 70.6640625 C-7.51911706 74.83834643 1.11784174 75.79960669 10.12109375 73.59375 C19.14688027 70.186756 24.21226995 64.98300177 28.1875 56.3125 C31.56724063 47.29985831 30.68041086 39.14306251 27.1875 30.3125 C23.15754463 22.70036208 16.38035215 16.94591676 8.1875 14.3125 C-4.08336145 11.65381335 -13.81212862 15.4454702 -22.625 24.0625 Z " fill="#555657" transform="translate(2601.8125,832.6875)"/>
<path d="M0 0 C3.13275067 2.17519292 4.46775892 3.79034522 6.875 7 C2.915 11.455 2.915 11.455 -1.125 16 C-5.32673576 14.3193057 -8.46446627 12.58732647 -12.16015625 10.12109375 C-19.33994914 6.02447236 -31.48486574 6.82395593 -39.23828125 8.7890625 C-43.08821881 10.43993589 -44.75632967 11.4469945 -47.125 15 C-47.04416465 19.77665358 -47.04416465 19.77665358 -44.515625 23.59765625 C-41.42041335 25.41331145 -38.49408884 26.11515384 -35 26.9375 C-34.30567871 27.10515869 -33.61135742 27.27281738 -32.89599609 27.44555664 C-29.08442044 28.35495395 -25.26139215 29.18621378 -21.421875 29.96875 C0.52785411 34.47928116 0.52785411 34.47928116 6.875 44 C9.974035 50.51563897 9.96033125 58.34777176 7.9375 65.25 C5.17291163 71.3652185 0.02407023 75.38229582 -5.83203125 78.390625 C-18.30748124 83.03417388 -35.32652435 83.3243377 -47.65625 78.2578125 C-55.33355964 74.34627183 -60.78143024 69.76966716 -66.125 63 C-64.76246417 59.88175879 -63.27391747 57.95262649 -60.6875 55.75 C-59.79224609 54.96882812 -59.79224609 54.96882812 -58.87890625 54.171875 C-57.125 53 -57.125 53 -54.125 53 C-52.58203125 54.609375 -52.58203125 54.609375 -50.9375 56.75 C-45.14190142 63.6125707 -37.97243936 66.17134934 -29.125 67 C-20.62700281 67.09881392 -13.55545265 65.89342808 -7.0625 60.1875 C-5.57835534 56.72449579 -6.04404375 54.56079705 -7.125 51 C-11.66856458 47.25906203 -15.88150131 46.06857118 -21.5 45 C-23.09928314 44.66822856 -24.69823589 44.33486096 -26.296875 44 C-27.5024707 43.7525 -27.5024707 43.7525 -28.73242188 43.5 C-53.33499388 38.35856454 -53.33499388 38.35856454 -59.99609375 28.90234375 C-62.9369844 23.94658684 -62.55524272 18.57751015 -62.125 13 C-60.22674821 6.90561267 -57.30731229 1.98620181 -51.859375 -1.4140625 C-35.73677573 -9.87100874 -15.55813361 -9.8393333 0 0 Z " fill="#545556" transform="translate(2863.125,840)"/>
<path d="M0 0 C8.1048164 5.81774299 13.22136201 13.40868387 15.25 23.25 C15.33626242 25.1745462 15.36771338 27.10184639 15.36352539 29.02832031 C15.36341209 30.76967255 15.36341209 30.76967255 15.36329651 32.54620361 C15.35813522 33.79423767 15.35297394 35.04227173 15.34765625 36.328125 C15.3462413 37.60983582 15.34482635 38.89154663 15.34336853 40.21209717 C15.33955901 43.6118364 15.32974214 47.0115326 15.31866455 50.41125488 C15.30841674 53.883539 15.3038637 57.3558301 15.29882812 60.828125 C15.28811841 67.63543608 15.27053433 74.44271154 15.25 81.25 C10.63 81.25 6.01 81.25 1.25 81.25 C1.23541748 79.66131104 1.22083496 78.07262207 1.20581055 76.43579102 C1.14762947 70.51466911 1.07039724 64.5939196 0.98754883 58.6730957 C0.95439264 56.11554022 0.92633205 53.5579132 0.90356445 51.00024414 C0.86984785 47.31365614 0.81752145 43.62771821 0.76171875 39.94140625 C0.75532883 38.80667374 0.7489389 37.67194122 0.74235535 36.50282288 C0.59228381 28.31134501 -0.77883991 21.45955414 -4.75 14.25 C-6.43019054 13.07342532 -6.43019054 13.07342532 -8.75 12.25 C-9.884375 11.71375 -11.01875 11.1775 -12.1875 10.625 C-19.67237704 7.92096621 -27.91314611 8.00232466 -35.1875 11.25 C-41.57025334 14.92397509 -45.35932507 19.94055125 -47.31866455 27.02618408 C-48.23121479 31.73097648 -48.11395664 36.53143499 -48.1640625 41.30859375 C-48.18342865 42.45288345 -48.2027948 43.59717316 -48.2227478 44.77613831 C-48.2822908 48.41318422 -48.32882812 52.05026221 -48.375 55.6875 C-48.413203 58.16082072 -48.45225608 60.63412846 -48.4921875 63.10742188 C-48.58797172 69.15484193 -48.67209623 75.20232424 -48.75 81.25 C-53.37 81.25 -57.99 81.25 -62.75 81.25 C-62.75 52.87 -62.75 24.49 -62.75 -4.75 C-58.13 -4.75 -53.51 -4.75 -48.75 -4.75 C-48.42 -2.44 -48.09 -0.13 -47.75 2.25 C-46.8528125 1.38375 -46.8528125 1.38375 -45.9375 0.5 C-32.63526971 -8.88980962 -13.64735484 -8.45051442 0 0 Z " fill="#555657" transform="translate(1422.75,838.75)"/>
<path d="M0 0 C32.01 0 64.02 0 97 0 C97 4.62 97 9.24 97 14 C83.47 14 69.94 14 56 14 C56 48.65 56 83.3 56 119 C51.05 119 46.1 119 41 119 C41 84.35 41 49.7 41 14 C27.47 14 13.94 14 0 14 C0 9.38 0 4.76 0 0 Z " fill="#555657" transform="translate(1070,801)"/>
<path d="M0 0 C4.95 0 9.9 0 15 0 C15 34.65 15 69.3 15 105 C36.12 105 57.24 105 79 105 C79 109.62 79 114.24 79 119 C52.93 119 26.86 119 0 119 C0 79.73 0 40.46 0 0 Z " fill="#555657" transform="translate(2465,801)"/>
<path d="M0 0 C0.99 0.99 0.99 0.99 2 2 C1.70831244 5.61991736 0.00384429 7.32363813 -2.5625 9.75 C-3.20316406 10.36359375 -3.84382813 10.9771875 -4.50390625 11.609375 C-5.24447266 12.29773438 -5.24447266 12.29773438 -6 13 C-8.42540288 11.85112495 -10.234142 10.80382697 -12.3125 9.0625 C-18.99314198 3.93549569 -26.70268588 2.19191376 -35 3 C-41.16276154 4.29541819 -45.92758474 6.32249893 -51 10 C-51.66 10 -52.32 10 -53 10 C-53.43119141 10.86625 -53.43119141 10.86625 -53.87109375 11.75 C-54.58402315 13.17092503 -55.30441488 14.58815251 -56.03515625 16 C-56.37417969 16.66 -56.71320313 17.32 -57.0625 18 C-57.40410156 18.66 -57.74570313 19.32 -58.09765625 20 C-61.46584701 27.46542715 -60.89399308 36.26584097 -58.3125 43.875 C-54.65490676 52.68359825 -49.5591151 56.35874934 -41 60 C-33.23336362 62.58887879 -24.66636854 61.64034444 -17.30078125 58.2890625 C-13.56040803 56.19343744 -10.32253736 53.70725266 -7 51 C-4.03 53.97 -1.06 56.94 2 60 C-2.35324425 68.7064885 -10.06602841 71.94492252 -19 75 C-31.00498811 78.03947947 -44.18740194 76.16590879 -55.03125 70.27734375 C-65.09230303 63.74963673 -71.76303727 54.82871025 -74.52734375 43.109375 C-76.54650512 29.82629687 -75.25860884 17.12317737 -67.8125 5.625 C-60.04562995 -4.57626216 -49.73516972 -9.97469334 -37.17578125 -11.74609375 C-22.71229002 -12.90246144 -11.2647242 -8.95005484 0 0 Z " fill="#555657" transform="translate(1339,845)"/>
<path d="M0 0 C1.41007672 1.21280049 2.81171241 2.43593702 4.1875 3.6875 C3.65074097 7.53853301 2.07149077 9.00547587 -0.875 11.4375 C-1.97521484 12.35789062 -1.97521484 12.35789062 -3.09765625 13.296875 C-3.66355469 13.75578125 -4.22945312 14.2146875 -4.8125 14.6875 C-5.30878906 14.28917969 -5.80507812 13.89085937 -6.31640625 13.48046875 C-14.32067418 7.23805107 -22.4010562 3.49001765 -32.8125 4.6875 C-41.19028391 6.57198929 -48.36289607 8.41385892 -53.23828125 15.8671875 C-58.3375173 24.62925508 -59.61150205 34.48121178 -57.12890625 44.42578125 C-53.96086927 52.03695723 -49.23230787 57.50164496 -41.7421875 60.9609375 C-34.09628383 63.83975953 -25.15313883 63.9220449 -17.5 61.0625 C-12.74513901 58.89907716 -8.851326 55.97839526 -4.8125 52.6875 C-1.8425 55.6575 1.1275 58.6275 4.1875 61.6875 C0.38422999 69.29404003 -6.69090673 73.04376397 -14.453125 75.9609375 C-26.15716714 79.5651624 -39.47714991 78.63393548 -50.53515625 73.3984375 C-61.58661421 67.16428173 -68.76580776 57.9801339 -72.38623047 45.74926758 C-75.14666589 32.39767701 -72.8874172 18.48350062 -65.59765625 7.07421875 C-58.25056918 -2.74869197 -47.81471826 -8.32275465 -35.75390625 -10.08984375 C-22.41332463 -11.09968857 -10.56914531 -8.38396337 0 0 Z " fill="#555656" transform="translate(3074.8125,843.3125)"/>
<path d="M0 0 C0 7.92 0 15.84 0 24 C8.91 24 17.82 24 27 24 C27 28.29 27 32.58 27 37 C18.09 37 9.18 37 0 37 C0.09687573 44.61749195 0.19957223 52.23443223 0.31738281 59.8515625 C0.3556877 62.44331036 0.39053787 65.03511166 0.421875 67.62695312 C0.46749217 71.35045483 0.5254931 75.07358815 0.5859375 78.796875 C0.59748871 79.95741394 0.60903992 81.11795288 0.62094116 82.31365967 C0.64081085 83.39447815 0.66068054 84.47529663 0.68115234 85.58886719 C0.69447601 86.53928894 0.70779968 87.48971069 0.7215271 88.46893311 C1.01371707 91.12467576 1.57242088 92.75517417 3 95 C7.4529163 97.83367401 12.05550028 96.99070122 17 96 C17.928125 95.62875 18.85625 95.2575 19.8125 94.875 C22.46906053 93.81237579 23.37855233 93.91878034 26 95 C27.30078125 96.9609375 27.30078125 96.9609375 28.3125 99.375 C28.65925781 100.16648437 29.00601563 100.95796875 29.36328125 101.7734375 C30 104 30 104 29 107 C20.45346999 112.05022228 10.02925925 112.2186951 0.4765625 110.5625 C-4.84474045 108.93144929 -8.0866059 105.55217829 -11 101 C-15.37395308 92.45712289 -15.14561983 83.09209714 -15.09765625 73.71875 C-15.0962413 72.66465942 -15.09482635 71.61056885 -15.09336853 70.52453613 C-15.08780508 67.18299429 -15.07525941 63.84152133 -15.0625 60.5 C-15.05748027 58.22395931 -15.0529182 55.94791755 -15.04882812 53.671875 C-15.03784763 48.1145571 -15.02060839 42.5572902 -15 37 C-20.28 37 -25.56 37 -31 37 C-31 32.71 -31 28.42 -31 24 C-25.72 24 -20.44 24 -15 24 C-15 16.41 -15 8.82 -15 1 C-8 0 -8 0 0 0 Z " fill="#555657" transform="translate(2918,810)"/>
<path d="M0 0 C0.66 0.99 1.32 1.98 2 3 C0.02 6.63 -1.96 10.26 -4 14 C-6.475 13.01 -6.475 13.01 -9 12 C-17.00649798 9.33116734 -22.90043371 9.34681858 -30.62890625 12.6640625 C-35.82433532 15.5913059 -39.38146345 20.26155222 -41 26 C-42.24940972 31.8080353 -42.22339975 37.6093 -42.31640625 43.5234375 C-42.33718735 44.62475006 -42.35796844 45.72606262 -42.37937927 46.86074829 C-42.4445619 50.36543773 -42.50361397 53.87019966 -42.5625 57.375 C-42.60571498 59.7565178 -42.64933022 62.13802837 -42.69335938 64.51953125 C-42.80021116 70.34628061 -42.90156626 76.1731026 -43 82 C-47.62 82 -52.24 82 -57 82 C-57 53.62 -57 25.24 -57 -4 C-52.38 -4 -47.76 -4 -43 -4 C-43 -1.69 -43 0.62 -43 3 C-41.9275 2.236875 -40.855 1.47375 -39.75 0.6875 C-27.86332278 -6.64505484 -12.16042282 -7.15318989 0 0 Z " fill="#555657" transform="translate(2286,838)"/>
<path d="M0 0 C0 0.66 0 1.32 0 2 C-17.28367508 7.82660206 -34.57073714 13.62181487 -52 19 C-63.00851117 22.39926057 -73.95505156 25.95135736 -84.875 29.625 C-100.01966701 34.71838094 -115.21770216 39.635918 -130.4375 44.5 C-131.51698914 44.84524719 -132.59647827 45.19049438 -133.7086792 45.54620361 C-139.64031054 47.44238363 -145.57393123 49.33210121 -151.51092529 51.21142578 C-153.08352934 51.70964908 -154.65572827 52.20915455 -156.22735596 52.71044922 C-158.07864392 53.30068095 -159.93180845 53.88501841 -161.78515625 54.46875 C-162.74429932 54.77232422 -163.70344238 55.07589844 -164.69165039 55.38867188 C-167 56 -167 56 -170 56 C-169.55470625 51.32441566 -169.03524486 46.68383481 -168.1875 42.0625 C-168.05730469 41.33160156 -167.92710937 40.60070312 -167.79296875 39.84765625 C-166.70835286 37.32044781 -165.49653559 37.06869632 -163 36 C-161.50313678 35.5707174 -159.99099723 35.19286523 -158.47094727 34.85473633 C-157.53959457 34.64403 -156.60824188 34.43332367 -155.64866638 34.2162323 C-154.61089554 33.98632095 -153.57312469 33.75640961 -152.50390625 33.51953125 C-150.13405878 32.98355011 -147.76444746 32.4465242 -145.39501953 31.90869141 C-144.7450233 31.76168006 -144.09502707 31.61466871 -143.42533398 31.46320248 C-135.27517118 29.61679572 -127.14118102 27.70135411 -119.00568771 25.79156113 C-114.2458173 24.67470727 -109.48515424 23.56124047 -104.72460938 22.44726562 C-98.85502464 21.07356417 -92.98562134 19.69910386 -87.11694336 18.3215332 C-67.00556204 13.60173791 -46.88702914 8.91392106 -26.72018623 4.43595314 C-24.92784142 4.03745362 -23.13594278 3.63694131 -21.34452629 3.23428917 C-18.87762465 2.68076006 -16.40901571 2.13564887 -13.93969727 1.59301758 C-12.85987296 1.34866817 -12.85987296 1.34866817 -11.75823402 1.0993824 C-7.76953937 0.23459438 -4.07927994 -0.16221457 0 0 Z " fill="#E4A248" transform="translate(831,359)"/>
<path d="M0 0 C4.95 0 9.9 0 15 0 C15 39.27 15 78.54 15 119 C10.05 119 5.1 119 0 119 C0 79.73 0 40.46 0 0 Z " fill="#555657" transform="translate(1567,801)"/>
<path d="M0 0 C4.95 0 9.9 0 15 0 C15 28.38 15 56.76 15 86 C10.05 86 5.1 86 0 86 C0 57.62 0 29.24 0 0 Z " fill="#555657" transform="translate(2763,834)"/>
<path d="M0 0 C4.95 0 9.9 0 15 0 C15 28.38 15 56.76 15 86 C10.05 86 5.1 86 0 86 C0 57.62 0 29.24 0 0 Z " fill="#545556" transform="translate(1809,834)"/>
<path d="M0 0 C1.15860928 0.01439243 1.15860928 0.01439243 2.34062481 0.02907562 C3.58913487 0.03806004 3.58913487 0.03806004 4.86286736 0.04722595 C17.29976597 0.22632395 29.70915692 1.17846407 42.1141336 2.029737 C45.8845481 2.2869888 49.65546592 2.53665497 53.42633343 2.78716278 C59.90060354 3.21815684 66.3745812 3.65332336 72.84837627 4.09139252 C83.0177681 4.77935325 93.18778389 5.45778202 103.35795879 6.13405609 C104.6349195 6.21898776 104.6349195 6.21898776 105.93767738 6.30563521 C109.39413192 6.53552414 112.85058768 6.76539444 116.30704975 6.99517 C121.5386629 7.34298201 126.770235 7.69140371 132.00177479 8.04031742 C165.11054832 10.24833841 198.2228994 12.39769278 231.33823484 14.50489926 C236.12548649 14.80969894 240.9126058 15.11651929 245.69966412 15.42433929 C252.09879015 15.83580441 258.49812057 16.24397268 264.89761448 16.64967728 C267.22106227 16.79742339 269.5444457 16.94618598 271.86775684 17.09606552 C275.02609294 17.29954983 278.18465619 17.49905559 281.34331036 17.69753265 C282.69899608 17.78620983 282.69899608 17.78620983 284.0820694 17.87667847 C297.27873633 18.69326668 307.90057607 18.90570641 318.63286114 10.27321625 C319.29286114 10.60321625 319.95286114 10.93321625 320.63286114 11.27321625 C319.24497312 12.57341635 317.84716856 13.86303555 316.44536114 15.14821625 C315.66805645 15.86751312 314.89075176 16.58681 314.08989239 17.32790375 C309.35559921 21.07619946 305.33912348 21.52766496 299.37578106 21.53444672 C298.66534208 21.53688511 297.95490311 21.5393235 297.22293568 21.54183578 C294.87371078 21.54509301 292.52499737 21.53152253 290.17582989 21.51540375 C288.94553082 21.51088511 288.94553082 21.51088511 287.69037724 21.50627518 C269.95395071 21.43322207 252.28651614 20.60535418 234.58488369 19.55385971 C231.88707324 19.39477921 229.18905016 19.23992221 226.49092388 19.08629608 C171.41199367 15.94705253 116.36339537 12.24813234 61.31405973 8.63297296 C59.78075695 8.5322844 58.24745184 8.43163136 56.71414423 8.3310163 C54.50905582 8.18631737 52.30397357 8.04152503 50.09889507 7.89667511 C49.03239951 7.82663506 49.03239951 7.82663506 47.94435859 7.75518006 C44.48559203 7.52770241 41.02693867 7.29869 37.56849194 7.06639767 C31.49444052 6.65868963 25.42033496 6.25649317 19.34371704 5.88886505 C17.29497873 5.76414298 15.24650351 5.63577609 13.19807434 5.50608349 C10.66465439 5.34640586 8.1308124 5.1932425 5.59654045 5.04771137 C4.47389447 4.9753511 3.35124849 4.90299082 2.19458294 4.82843781 C1.21288789 4.76916957 0.23119284 4.70990133 -0.78025055 4.64883709 C-3.37351075 4.27229104 -5.11852867 3.58681489 -7.36713886 2.27321625 C-4.87489583 -0.21902678 -3.40315987 0.01769356 0 0 Z " fill="#E4A348" transform="translate(299.36713886260986,527.7267837524414)"/>
<path d="M0 0 C4.62 0 9.24 0 14 0 C14 28.38 14 56.76 14 86 C9.38 86 4.76 86 0 86 C0 57.62 0 29.24 0 0 Z " fill="#555657" transform="translate(2966,834)"/>
<path d="M0 0 C4.95 0 9.9 0 15 0 C13.64580849 9.47934055 9.76412108 18.9428129 3 26 C-1.69198974 27.59942692 -5.25692504 27.28945281 -10 26 C-9.52460869 19.6297564 -7.25813609 14.74264771 -4.4375 9.0625 C-4.01275391 8.18787109 -3.58800781 7.31324219 -3.15039062 6.41210938 C-2.10886028 4.27053574 -1.05560632 2.13467056 0 0 Z " fill="#545556" transform="translate(2772,801)"/>
<path d="M0 0 C4.6 2.2 4.6 2.2 6 5 C6.51968957 9.4131016 6.85380637 12.86159151 4.125 16.5 C0.91970125 18.76256382 -0.57081409 19.13095428 -4.4375 18.75 C-5.61119141 18.64945313 -5.61119141 18.64945313 -6.80859375 18.546875 C-9.43866425 17.89052942 -10.38407185 17.15788559 -12 15 C-13.53078556 8.22080679 -13.53078556 8.22080679 -11.75 4.125 C-8.1848005 -0.20417082 -5.39444547 -0.4650384 0 0 Z " fill="#545556" transform="translate(1820,802)"/>
<path d="M0 0 C2.75329021 1.79562405 4.52627461 3.05254922 6 6 C6.3724496 9.94796574 6.34935635 12.33040033 4.5 15.875 C1.15129023 18.7214033 -1.64584551 19.31162935 -6 19 C-9.62090756 17.42569236 -10.79255284 16.31117074 -13 13 C-13.46797583 8.78821757 -13.46565795 6.71400886 -11.125 3.125 C-7.54668265 -0.45331735 -4.99886778 -0.42363286 0 0 Z " fill="#555657" transform="translate(2977,802)"/>
<path d="M0 0 C0 0.66 0 1.32 0 2 C-6.93 5.465 -6.93 5.465 -14 9 C-13 5 -13 5 -10.56640625 3.515625 C-9.07947266 2.88914062 -9.07947266 2.88914062 -7.5625 2.25 C-6.57378906 1.82203125 -5.58507812 1.3940625 -4.56640625 0.953125 C-2 0 -2 0 0 0 Z " fill="#E7A84F" transform="translate(574,564)"/>
</svg>
